<svg width="18" height="21" viewBox="0 0 18 21" fill="none" xmlns="http://www.w3.org/2000/svg">
<path fill-rule="evenodd" clip-rule="evenodd" d="M12.3021 12.9994H5.69703C3.75304 13.096 2.03075 14.2834 1.24924 16.066C0.306612 17.9166 2.18786 19.6658 4.37576 19.6658H13.6233C15.8126 19.6658 17.6938 17.9166 16.7499 16.066C15.9683 14.2834 14.2461 13.096 12.3021 12.9994Z" stroke="#333333" stroke-width="2" stroke-linecap="round" stroke-linejoin="round"/>
<path fill-rule="evenodd" clip-rule="evenodd" d="M12.9994 4.99982C12.9994 7.20885 11.2087 8.99963 8.99963 8.99963C6.79059 8.99963 4.99982 7.20885 4.99982 4.99982C4.99982 2.79078 6.79059 1 8.99963 1C10.0604 1 11.0778 1.42141 11.8279 2.17152C12.578 2.92163 12.9994 3.939 12.9994 4.99982Z" stroke="#333333" stroke-width="2" stroke-linecap="round" stroke-linejoin="round"/>
</svg>
