<svg width="44" height="42" viewBox="0 0 44 42" fill="none" xmlns="http://www.w3.org/2000/svg">
<path d="M20.6614 0.578939C21.0198 -0.192793 22.1169 -0.192792 22.4753 0.57894L28.1335 12.7627C28.2792 13.0764 28.5767 13.2926 28.9202 13.3342L42.2561 14.9505C43.1008 15.0529 43.4398 16.0963 42.8166 16.6756L32.9777 25.8219C32.7243 26.0574 32.6107 26.4072 32.6772 26.7467L35.261 39.9293C35.4247 40.7643 34.5371 41.4092 33.7935 40.9955L22.0545 34.4645C21.7522 34.2963 21.3845 34.2963 21.0822 34.4645L9.34319 40.9955C8.59963 41.4092 7.71202 40.7643 7.87568 39.9293L10.4595 26.7467C10.5261 26.4072 10.4124 26.0574 10.1591 25.8219L0.320113 16.6756C-0.303097 16.0963 0.035939 15.0529 0.880651 14.9505L14.2165 13.3342C14.56 13.2926 14.8575 13.0764 15.0032 12.7627L20.6614 0.578939Z" fill="#D2D6DC"/>
</svg>
