<svg width="18" height="21" viewBox="0 0 18 21" fill="none" xmlns="http://www.w3.org/2000/svg">
<path fill-rule="evenodd" clip-rule="evenodd" d="M12.303 12.9994H5.69801C3.75402 13.096 2.03173 14.2834 1.25021 16.066C0.307588 17.9166 2.18883 19.6658 4.37673 19.6658H13.6243C15.8135 19.6658 17.6948 17.9166 16.7508 16.066C15.9693 14.2834 14.247 13.096 12.303 12.9994Z" stroke="#777777" stroke-width="2" stroke-linecap="round" stroke-linejoin="round"/>
<path fill-rule="evenodd" clip-rule="evenodd" d="M13.0004 4.99982C13.0004 7.20885 11.2096 8.99963 9.00061 8.99963C6.79157 8.99963 5.00079 7.20885 5.00079 4.99982C5.00079 2.79078 6.79157 1 9.00061 1C10.0614 1 11.0788 1.42141 11.8289 2.17152C12.579 2.92163 13.0004 3.939 13.0004 4.99982Z" stroke="#777777" stroke-width="2" stroke-linecap="round" stroke-linejoin="round"/>
</svg>