<svg width="21" height="17" viewBox="0 0 21 17" fill="none" xmlns="http://www.w3.org/2000/svg">
<path d="M11.5556 12.7857V2.07143C11.5556 1.47969 11.083 1 10.5 1H2.05556C1.47259 1 1 1.47969 1 2.07143V12.7857C1 13.3774 1.47259 13.8571 2.05556 13.8571H3.11111M11.5556 12.7857C11.5556 13.3774 11.083 13.8571 10.5 13.8571H7.33333M11.5556 12.7857L11.5556 4.21429C11.5556 3.62255 12.0281 3.14286 12.6111 3.14286H15.3406C15.6205 3.14286 15.889 3.25574 16.0869 3.45667L19.6908 7.11476C19.8888 7.31569 20 7.58821 20 7.87237V12.7857C20 13.3774 19.5274 13.8571 18.9444 13.8571H17.8889M11.5556 12.7857C11.5556 13.3774 12.0281 13.8571 12.6111 13.8571H13.6667M3.11111 13.8571C3.11111 15.0406 4.05629 16 5.22222 16C6.38816 16 7.33333 15.0406 7.33333 13.8571M3.11111 13.8571C3.11111 12.6737 4.05629 11.7143 5.22222 11.7143C6.38816 11.7143 7.33333 12.6737 7.33333 13.8571M13.6667 13.8571C13.6667 15.0406 14.6118 16 15.7778 16C16.9437 16 17.8889 15.0406 17.8889 13.8571M13.6667 13.8571C13.6667 12.6737 14.6118 11.7143 15.7778 11.7143C16.9437 11.7143 17.8889 12.6737 17.8889 13.8571" stroke="#777777" stroke-width="1.5"/>
<path d="M5.74512 4V7.5" stroke="#777777" stroke-width="1.5" stroke-linecap="round"/>
<path d="M4 5.75488L7.5 5.75488" stroke="#777777" stroke-width="1.5" stroke-linecap="round"/>
</svg>
