<svg width="21" height="20" viewBox="0 0 21 20" fill="none" xmlns="http://www.w3.org/2000/svg">
<path d="M5.60645 10.9384C5.60645 10.3023 6.12204 9.78674 6.75811 9.78674C7.39417 9.78674 7.90977 10.3023 7.90977 10.9384" stroke="#777777" stroke-width="1.5" stroke-miterlimit="10"/>
<path d="M12.5156 10.9384C12.5156 10.3023 13.0312 9.78674 13.6673 9.78674C14.3033 9.78674 14.8189 10.3023 14.8189 10.9384" stroke="#777777" stroke-width="1.5" stroke-miterlimit="10"/>
<path d="M11.9404 13.6646C11.9404 14.6187 11.167 15.3921 10.2129 15.3921C9.25877 15.3921 8.48535 14.6187 8.48535 13.6646" stroke="#777777" stroke-width="1.5" stroke-miterlimit="10"/>
<path d="M12.5162 0V0.573441C12.5162 1.84552 11.485 2.87676 10.2129 2.87676" stroke="#777777" stroke-width="1.5" stroke-miterlimit="10"/>
<path d="M14.8201 0.573425V1.14687C14.8201 2.23652 14.0634 3.14944 13.0469 3.38887" stroke="#777777" stroke-width="1.5" stroke-miterlimit="10"/>
<path d="M19.4266 10.9384C19.4266 9.97249 18.8317 9.14597 17.9887 8.80381C17.0529 5.38752 13.9265 2.87677 10.2133 2.87677C6.50002 2.87677 3.37366 5.38752 2.43788 8.80381C1.59481 9.14597 1 9.97249 1 10.9384C1 11.9343 1.63208 12.7824 2.51694 13.1038C3.67185 16.5044 7.34046 19 10.2133 19C13.0861 19 16.7547 16.5044 17.9096 13.1038C18.7945 12.7824 19.4266 11.9343 19.4266 10.9384Z" stroke="#777777" stroke-width="1.5" stroke-miterlimit="10"/>
</svg>
