<svg width="32" height="32" viewBox="0 0 32 32" fill="none" xmlns="http://www.w3.org/2000/svg">
<path d="M7.26096 3.99907C6.8398 7.83905 4.77324 9.42515 6.58336 12.8073C6.69935 13.024 6.75734 13.1323 6.77875 13.1814C7.02623 13.7491 6.92126 14.2609 6.47027 14.6853C6.43126 14.722 6.36527 14.7748 6.2333 14.8803C6.00685 15.0615 5.89362 15.1521 5.79024 15.244C4.7234 16.1922 4.08115 17.5285 4.00717 18.9539C4 19.092 4 19.237 4 19.527V24.667C4 26.5396 4 27.4759 4.44941 28.1485C4.64397 28.4397 4.89397 28.6897 5.18515 28.8842C5.85774 29.3337 6.79405 29.3337 8.66667 29.3337C10.5393 29.3337 11.4756 29.3337 12.1482 28.8842C12.4394 28.6897 12.6894 28.4397 12.8839 28.1485C13.3333 27.4759 13.3333 26.5396 13.3333 24.667V19.527C13.3333 19.237 13.3333 19.092 13.3262 18.9539C13.2522 17.5285 12.6099 16.1922 11.5431 15.244C11.4397 15.1521 11.3265 15.0615 11.1 14.8803C10.9681 14.7748 10.9021 14.722 10.8631 14.6853C10.4121 14.2609 10.3071 13.7491 10.5546 13.1814C10.576 13.1324 10.634 13.024 10.75 12.8072C12.56 9.42512 10.4931 7.83902 10.0716 3.99895C9.99124 3.26698 9.40264 2.66699 8.66628 2.66699C7.92987 2.66699 7.34125 3.26705 7.26096 3.99907Z" stroke="#3B61B9" stroke-width="2" stroke-linecap="round" stroke-linejoin="round"/>
<path d="M13.334 21.333H4.00065" stroke="#3B61B9" stroke-width="2" stroke-linecap="round" stroke-linejoin="round"/>
<path d="M21.928 3.99907C21.5068 7.83905 19.4402 9.42515 21.2503 12.8073C21.3663 13.024 21.4243 13.1323 21.4457 13.1814C21.6932 13.7491 21.5882 14.2609 21.1373 14.6853C21.0983 14.722 21.0323 14.7748 20.9003 14.8803C20.6738 15.0615 20.5606 15.1521 20.4572 15.244C19.3904 16.1922 18.7481 17.5285 18.6742 18.9539C18.667 19.092 18.667 19.237 18.667 19.527V24.667C18.667 26.5396 18.667 27.4759 19.1164 28.1485C19.311 28.4397 19.561 28.6897 19.8521 28.8842C20.5247 29.3337 21.461 29.3337 23.3337 29.3337C25.2063 29.3337 26.1426 29.3337 26.8152 28.8842C27.1064 28.6897 27.3564 28.4397 27.5509 28.1485C28.0003 27.4759 28.0003 26.5396 28.0003 24.667V19.527C28.0003 19.237 28.0003 19.092 27.9932 18.9539C27.9192 17.5285 27.2769 16.1922 26.2101 15.244C26.1067 15.1521 25.9935 15.0615 25.767 14.8803C25.635 14.7748 25.5691 14.722 25.5301 14.6853C25.0791 14.2609 24.9741 13.7491 25.2216 13.1814C25.243 13.1324 25.301 13.024 25.417 12.8072C27.227 9.42512 25.1601 7.83902 24.7386 3.99895C24.6582 3.26698 24.0696 2.66699 23.3333 2.66699C22.5969 2.66699 22.0082 3.26705 21.928 3.99907Z" stroke="#3B61B9" stroke-width="2" stroke-linecap="round" stroke-linejoin="round"/>
<path d="M28 21.333H18.6667" stroke="#3B61B9" stroke-width="2" stroke-linecap="round" stroke-linejoin="round"/>
</svg>
