<svg width="32" height="32" viewBox="0 0 32 32" fill="none" xmlns="http://www.w3.org/2000/svg">
<path d="M3.44727 28.333C3.44727 28.8853 3.89498 29.333 4.44727 29.333H29.1139C29.6662 29.333 30.1139 28.8853 30.1139 28.333V3.66634C30.1139 3.11406 29.6662 2.66634 29.1139 2.66634H4.44726C3.89498 2.66634 3.44727 3.11406 3.44727 3.66634V28.333Z" stroke="#3B61B9" stroke-width="2" stroke-miterlimit="22.926" stroke-linecap="round" stroke-linejoin="round"/>
<path d="M6.77734 25.1474C7.88844 25.7155 9.13906 26.0137 10.4108 26.0137C14.2855 26.0137 18.7366 22.0732 19.0722 18.5282C14.6963 14.2845 10.0167 10.4289 8.03898 5.98605" stroke="#3B61B9" stroke-width="2" stroke-miterlimit="22.926" stroke-linecap="round" stroke-linejoin="round"/>
<path d="M17.4185 21.4424C16.4014 21.3783 15.5551 20.5694 15.3927 19.5062C15.2715 18.7124 15.5564 17.9172 16.1416 17.4159" stroke="#3B61B9" stroke-width="2" stroke-miterlimit="22.926" stroke-linecap="round" stroke-linejoin="round"/>
<path d="M22.7559 5.98633H26.7946" stroke="#3B61B9" stroke-width="2" stroke-miterlimit="22.926" stroke-linecap="round" stroke-linejoin="round"/>
<path d="M19.4922 9.30566H26.7951" stroke="#3B61B9" stroke-width="2" stroke-miterlimit="22.926" stroke-linecap="round" stroke-linejoin="round"/>
</svg>
