<svg xmlns="http://www.w3.org/2000/svg" version="1.1" xmlns:xlink="http://www.w3.org/1999/xlink" xmlns:svgjs="http://svgjs.dev/svgjs" width="66" height="66"><svg width="66" height="66" viewBox="0 0 66 66" fill="none" xmlns="http://www.w3.org/2000/svg">
<path d="M5.51042 16.7189L32.9062 0.901914L60.3021 16.7189V48.3529L32.9062 64.1699L5.51042 48.3529V16.7189Z" stroke="#1063C0" stroke-width="1.5"></path>
<circle cx="32.9067" cy="32.556" r="25.8945" stroke="#1063C0" stroke-width="1.5"></circle>
<path d="M28.1866 24.7461H25.9783V40.8385C25.9783 41.2249 26.1255 41.4825 26.42 41.6113C26.7328 41.7401 27.4321 41.8414 28.5178 41.915L28.7662 43.1295C26.3924 43.0743 25.1226 43.0467 24.957 43.0467C24.7914 43.0467 23.4941 43.0743 21.0651 43.1295L20.8442 41.915C22.0771 41.8045 22.8224 41.7033 23.08 41.6113C23.3377 41.5009 23.4665 41.2433 23.4665 40.8385V24.7461H21.7551C20.835 24.7461 20.1542 24.7921 19.7125 24.8841C18.4428 25.1417 17.6331 26.2734 17.2835 28.2792L16.5106 28.3344C16.3818 27.6904 16.3174 26.8071 16.3174 25.6846C16.3174 24.5437 16.3818 23.7524 16.5106 23.3107C16.9154 23.4395 17.6423 23.5039 18.6912 23.5039H31.0848C32.1521 23.5039 32.8698 23.4395 33.2378 23.3107C33.3115 24.102 33.3483 24.9485 33.3483 25.8502C33.3483 26.7519 33.2747 27.5799 33.1274 28.3344L32.2994 28.2516C32.1337 26.9635 31.7473 26.0618 31.14 25.5465C30.5328 25.0129 29.5483 24.7461 28.1866 24.7461Z" fill="#1561BE"></path>
<path d="M44.7659 24.7185L41.9228 24.7461C40.6347 24.8013 39.9906 24.9485 39.9906 25.1877V32.0884C39.9906 32.2724 40.0826 32.3644 40.2666 32.3644H44.3794C44.8211 32.3644 45.1155 32.162 45.2627 31.7572C45.4283 31.3339 45.5111 30.561 45.5111 29.4385L46.422 29.3005L46.3668 32.9717L46.422 36.3668L45.5111 36.5048C45.5111 35.4191 45.4467 34.7199 45.3179 34.407C45.1891 34.0942 44.8763 33.9378 44.3794 33.9378H40.2666C40.0826 33.9378 39.9906 34.0206 39.9906 34.1862V40.6452C39.9906 41.1973 40.1746 41.5561 40.5426 41.7217C40.9291 41.8874 41.7296 41.9702 42.9441 41.9702L43.2201 43.1571L39.4109 43.1019C39.1717 43.1019 37.8376 43.1295 35.4085 43.1847L35.1877 41.9702C36.2182 41.8598 36.8439 41.7585 37.0647 41.6665C37.3039 41.5561 37.4419 41.2985 37.4787 40.8937V25.7122C37.4787 25.3257 37.3499 25.0681 37.0923 24.9393C36.8347 24.8105 36.2366 24.7093 35.2981 24.6357L35.0497 23.4211L38.5 23.5039H42.6681L49.4859 23.5316C49.6147 23.8076 49.6791 24.424 49.6791 25.3809C49.6791 26.3378 49.6331 27.3223 49.5411 28.3344L48.6578 28.2516C48.437 26.9451 48.0322 26.0342 47.4433 25.5189C46.8545 24.9853 45.962 24.7185 44.7659 24.7185Z" fill="#1561BE"></path>
</svg><style>@media (prefers-color-scheme: light) { :root { filter: none; } }
@media (prefers-color-scheme: dark) { :root { filter: none; } }
</style></svg>