<?xml version="1.0" encoding="UTF-8"?>
<!DOCTYPE svg PUBLIC "-//W3C//DTD SVG 1.1//EN" "http://www.w3.org/Graphics/SVG/1.1/DTD/svg11.dtd">
<!-- Creator: CorelDRAW -->
<svg xmlns="http://www.w3.org/2000/svg" xml:space="preserve" width="19.3265mm" height="19.3253mm" version="1.1" style="shape-rendering:geometricPrecision; text-rendering:geometricPrecision; image-rendering:optimizeQuality; fill-rule:evenodd; clip-rule:evenodd"
viewBox="0 0 62.07 62.06"
 xmlns:xlink="http://www.w3.org/1999/xlink"
 xmlns:xodm="http://www.corel.com/coreldraw/odm/2003">
 <defs>
  <style type="text/css">
   <![CDATA[
    .fil2 {fill:#3B61B9}
    .fil0 {fill:#F8FAFF}
    .fil1 {fill:#3B61B9;fill-rule:nonzero}
   ]]>
  </style>
 </defs>
 <g id="Слой_x0020_1">
  <metadata id="CorelCorpID_0Corel-Layer"/>
  <rect class="fil0" x="-0" y="-0" width="62.07" height="62.06"/>
  <path class="fil1" d="M18.95 18.95c2.02,-2.02 4.67,-3.03 7.31,-3.03 2.65,0 5.29,1.01 7.31,3.03 2.02,2.02 3.03,4.67 3.03,7.31 0,2.3 -0.76,4.6 -2.29,6.49l2.14 2.14c0.21,-0.1 0.44,-0.15 0.67,-0.15 0.4,0 0.8,0.15 1.1,0.46l7.47 7.47c0.3,0.3 0.45,0.7 0.45,1.1l0 0c0,0.4 -0.15,0.79 -0.46,1.1l-0.82 0.83c-0.31,0.31 -0.7,0.46 -1.1,0.46 -0.4,0 -0.8,-0.15 -1.1,-0.46l-7.47 -7.47c-0.3,-0.3 -0.45,-0.7 -0.45,-1.1l-0 0c0,-0.23 0.05,-0.45 0.15,-0.66l-2.14 -2.14c-1.89,1.52 -4.19,2.29 -6.49,2.29 -2.65,0 -5.29,-1.01 -7.31,-3.03 -2.02,-2.02 -3.03,-4.67 -3.03,-7.31 0,-2.65 1.01,-5.29 3.03,-7.31zm6.11 3.16c-0.59,0.17 -1.2,-0.17 -1.37,-0.75 -0.17,-0.59 0.17,-1.2 0.75,-1.37 0.6,-0.17 1.21,-0.26 1.82,-0.26l0 0c0.62,-0 1.23,0.08 1.81,0.25 0.59,0.17 0.93,0.78 0.76,1.37 -0.17,0.59 -0.78,0.93 -1.37,0.76 -0.4,-0.12 -0.81,-0.17 -1.21,-0.17l0 0c-0.41,0 -0.82,0.06 -1.2,0.17zm1.21 -3.97c-2.08,0 -4.16,0.79 -5.74,2.38 -1.59,1.59 -2.38,3.67 -2.38,5.74 0,2.08 0.79,4.16 2.38,5.74 1.59,1.59 3.67,2.38 5.75,2.38 2.08,0 4.16,-0.79 5.74,-2.38 1.59,-1.59 2.38,-3.67 2.38,-5.74 0,-2.08 -0.79,-4.16 -2.38,-5.74 -1.59,-1.59 -3.67,-2.38 -5.75,-2.38z"/>
  <rect class="fil2" transform="matrix(1.2055 -1.20547E+000 2.88232 2.88225 35.6662 37.1194)" width="1.21" height="2.81" rx="0.26" ry="0.26"/>
 </g>
</svg>
