<svg width="32" height="32" viewBox="0 0 32 32" fill="none" xmlns="http://www.w3.org/2000/svg">
<path d="M11.1938 3.40293C13.1603 2.18447 14.8767 2.6755 15.9078 3.45765C16.3306 3.77834 16.542 3.93869 16.6663 3.93869C16.7907 3.93869 17.0021 3.77834 17.4249 3.45765C18.456 2.6755 20.1723 2.18447 22.1389 3.40293C24.7198 5.00203 25.3037 10.2775 19.3507 14.7283C18.2168 15.576 17.6499 15.9999 16.6663 15.9999C15.6828 15.9999 15.1159 15.576 13.982 14.7283C8.02894 10.2775 8.61292 5.00203 11.1938 3.40293Z" stroke="#3B61B9" stroke-width="2" stroke-linecap="round"/>
<path d="M5.33301 18.667H8.5261C8.9183 18.667 9.30511 18.7554 9.6559 18.9251L12.3785 20.2424C12.7293 20.4121 13.1161 20.5005 13.5083 20.5005H14.8985C16.243 20.5005 17.333 21.5552 17.333 22.8563C17.333 22.9089 17.297 22.9551 17.2447 22.9696L13.8568 23.9063C13.2491 24.0743 12.5983 24.0158 12.033 23.7422L9.12248 22.334" stroke="#3B61B9" stroke-width="2" stroke-linecap="round" stroke-linejoin="round"/>
<path d="M17.333 22L23.4567 20.1186C24.5423 19.7803 25.7158 20.1814 26.3958 21.1231C26.8875 21.8039 26.6873 22.7789 25.971 23.1922L15.9502 28.974C15.3128 29.3418 14.5609 29.4315 13.8599 29.2235L5.33301 26.6933" stroke="#3B61B9" stroke-width="2" stroke-linecap="round" stroke-linejoin="round"/>
</svg>
