<svg width="32" height="32" viewBox="0 0 32 32" fill="none" xmlns="http://www.w3.org/2000/svg">
<path d="M16 6V8M16 8V10M16 8H18M16 8H14" stroke="#3B61B9" stroke-width="2" stroke-linecap="round"/>
<path d="M11.4471 3.44804C10.666 4.22909 10.666 5.48617 10.666 8.00033C10.666 10.5145 10.666 11.7716 11.4471 12.5526C12.2281 13.3337 13.4852 13.3337 15.9993 13.3337C18.5135 13.3337 19.7706 13.3337 20.5516 12.5526C21.3327 11.7716 21.3327 10.5145 21.3327 8.00033C21.3327 5.48617 21.3327 4.22909 20.5516 3.44804C19.7706 2.66699 18.5135 2.66699 15.9993 2.66699C13.4852 2.66699 12.2281 2.66699 11.4471 3.44804Z" stroke="#3B61B9" stroke-width="2" stroke-linecap="round" stroke-linejoin="round"/>
<path d="M5.33398 29.3337V15.9613C5.33398 11.5486 5.33398 9.34231 6.70082 7.97147C7.56952 7.10023 8.77472 6.78271 10.6673 6.66699M26.6673 29.3337V15.9613C26.6673 11.5486 26.6673 9.34231 25.3005 7.97147C24.4318 7.10023 23.2266 6.78271 21.334 6.66699" stroke="#3B61B9" stroke-width="2" stroke-linecap="round" stroke-linejoin="round"/>
<path d="M4 29.333H28" stroke="#3B61B9" stroke-width="2" stroke-linecap="round" stroke-linejoin="round"/>
<path d="M12.666 29.3337V26.0003C12.666 24.7542 12.666 24.1311 12.934 23.667C13.1095 23.363 13.362 23.1105 13.666 22.9349C14.1301 22.667 14.7532 22.667 15.9993 22.667C17.2455 22.667 17.8686 22.667 18.3327 22.9349C18.6367 23.1105 18.8892 23.363 19.0647 23.667C19.3327 24.1311 19.3327 24.7542 19.3327 26.0003V29.3337" stroke="#3B61B9" stroke-width="2" stroke-linecap="round"/>
<path d="M10.678 17.333H10.666M15.9993 17.333H15.9874M21.3342 17.333H21.3223" stroke="#3B61B9" stroke-width="2" stroke-linecap="round" stroke-linejoin="round"/>
</svg>
