<svg width="32" height="32" viewBox="0 0 32 32" fill="none" xmlns="http://www.w3.org/2000/svg">
<path d="M24.7646 13.2207C25.3076 13.9327 25.6299 14.8208 25.6299 15.784C25.6299 18.1262 23.7239 20.0249 21.3727 20.0249C20.2013 20.0249 19.1387 19.5536 18.3672 18.791" stroke="#3B61B9" stroke-width="2" stroke-miterlimit="10" stroke-linecap="round" stroke-linejoin="round"/>
<path d="M8.63439 9.12598C8.63439 9.12598 8.58365 10.3773 7.74094 12.2716C7.55865 12.6814 7.33093 13.0689 7.08163 13.442C6.63273 14.114 6.37109 14.9208 6.37109 15.7886C6.37104 18.1202 8.24573 20.0069 10.5862 20.0294C11.7427 20.0405 12.7958 19.5921 13.571 18.8564" stroke="#3B61B9" stroke-width="2" stroke-miterlimit="10" stroke-linecap="round" stroke-linejoin="round"/>
<path d="M24.7634 13.2229C23.4509 11.0834 23.3906 9.13281 23.3906 9.13281" stroke="#3B61B9" stroke-width="2" stroke-miterlimit="10" stroke-linecap="round" stroke-linejoin="round"/>
<path d="M7.76758 18.9326C7.76758 18.9326 8.9117 21.6694 8.9117 25.6162" stroke="#3B61B9" stroke-width="2" stroke-miterlimit="10" stroke-linecap="round" stroke-linejoin="round"/>
<path d="M24.3686 18.8076C24.3686 18.8076 23.2383 21.667 23.2383 25.6137" stroke="#3B61B9" stroke-width="2" stroke-miterlimit="10" stroke-linecap="round" stroke-linejoin="round"/>
<path d="M4.42578 9.08885C4.42578 7.06727 5.97958 5.38229 8.00166 5.21122L11.0549 4.95286C12.1731 4.85825 13.0323 3.92647 13.0323 2.80857V2.66699H18.6479C18.6479 3.78871 19.5128 4.72232 20.6352 4.81211L24.1588 5.09394C26.1885 5.25626 27.7526 6.94456 27.7526 8.97305V9.08885" stroke="#3B61B9" stroke-width="2" stroke-miterlimit="10" stroke-linecap="round" stroke-linejoin="round"/>
<path d="M29.3327 25.6206L2.66602 25.6101V9.11914H29.3327V25.6206Z" stroke="#3B61B9" stroke-width="2" stroke-miterlimit="10" stroke-linecap="round" stroke-linejoin="round"/>
<path d="M4.02734 25.6055V29.321H6.99343C6.99343 29.321 7.50917 27.2753 7.33727 25.6055" stroke="#3B61B9" stroke-width="2" stroke-miterlimit="10" stroke-linecap="round" stroke-linejoin="round"/>
<path d="M27.7533 25.6201V29.3357H24.8008C24.8008 29.3357 24.2851 27.2899 24.457 25.6201" stroke="#3B61B9" stroke-width="2" stroke-miterlimit="10" stroke-linecap="round" stroke-linejoin="round"/>
<path d="M6.99219 29.3193H24.8" stroke="#3B61B9" stroke-width="2" stroke-miterlimit="10" stroke-linecap="round" stroke-linejoin="round"/>
</svg>
