<svg width="32" height="32" viewBox="0 0 32 32" fill="none" xmlns="http://www.w3.org/2000/svg">
<path d="M4.80005 30V28.6667C4.80005 26.1744 4.80005 24.9282 5.33595 24C5.68702 23.3919 6.19197 22.887 6.80005 22.5359C7.72825 22 8.97441 22 11.4667 22L15.4667 27.3333L19.4667 22C21.959 22 23.2052 22 24.1334 22.5359C24.7415 22.887 25.2464 23.3919 25.5975 24C26.1334 24.9282 26.1334 26.1744 26.1334 28.6667V30" stroke="#3B61B9" stroke-width="2" stroke-linecap="round" stroke-linejoin="round"/>
<path d="M20.7165 11.3324L22.0736 5.81812C22.3843 4.55581 21.4445 3.33301 20.1637 3.33301H10.7697C9.48892 3.33301 8.54915 4.55581 8.85981 5.81811L10.2169 11.3324M20.7165 11.3324V13.999C20.7165 16.9445 18.3661 19.3324 15.4667 19.3324C12.5673 19.3324 10.2169 16.9445 10.2169 13.999V11.3324M20.7165 11.3324H10.2169" stroke="#3B61B9" stroke-width="2" stroke-linecap="round" stroke-linejoin="round"/>
<path d="M15.4663 6V8.66602M16.7993 7.33301L14.1333 7.33301" stroke="#3B61B9" stroke-width="2" stroke-linecap="round" stroke-linejoin="round"/>
</svg>
