<svg width="374.000000" height="511.000000" viewBox="0 0 374 511" fill="none" xmlns="http://www.w3.org/2000/svg" xmlns:xlink="http://www.w3.org/1999/xlink">
	<desc>
			Created with Pixso.
	</desc>
	<defs>
		<clipPath id="clip14_903">
			<rect id="Frame 1439347805" width="374.000000" height="511.000000" fill="white" fill-opacity="0"/>
		</clipPath>
	</defs>
	<g clip-path="url(#clip14_903)">
		<rect id="Frame 1439347801" x="-0.142578" y="0.500000" rx="-0.500000" width="373.999969" height="509.999939" fill="#F9F9FA" fill-opacity="1.000000"/>
		<mask id="mask14_907" mask-type="alpha" maskUnits="userSpaceOnUse" x="-0.142578" y="0.500000" width="374.000000" height="510.000000">
			<rect id="Frame 1439347801" x="-0.142578" y="0.500000" rx="-0.500000" width="373.999969" height="509.999939" fill="#000000" fill-opacity="1.000000"/>
		</mask>
		<g mask="url(#mask14_907)">
			<path id="Polygon 1" d="M402.06 36.21L385.87 17.79L361.84 22.6L353.99 45.83L370.17 64.23L394.21 59.42L402.06 36.21ZM401.5 36.31L385.69 18.33L362.21 23.04L354.54 45.71L370.36 63.71L393.84 59L401.5 36.31Z" fill="#98B1E8" fill-opacity="1.000000" fill-rule="evenodd"/>
			<circle id="Ellipse 1" r="2.451232" transform="matrix(-0.660344 -0.750963 0.750963 -0.660344 369.966 63.7827)" fill="#98B1E8" fill-opacity="1.000000"/>
			<circle id="Ellipse 5" r="2.451232" transform="matrix(-0.660344 -0.750963 0.750963 -0.660344 385.396 18.2256)" fill="#98B1E8" fill-opacity="1.000000"/>
			<circle id="Ellipse 2" r="0.980492" transform="matrix(-0.660344 -0.750963 0.750963 -0.660344 354.104 45.7427)" fill="#98B1E8" fill-opacity="1.000000"/>
			<circle id="Ellipse 6" r="0.980492" transform="matrix(-0.660344 -0.750963 0.750963 -0.660344 401.951 36.3101)" fill="#98B1E8" fill-opacity="1.000000"/>
			<circle id="Ellipse 3" r="0.980492" transform="matrix(-0.660344 -0.750963 0.750963 -0.660344 393.89 59.0659)" fill="#98B1E8" fill-opacity="1.000000"/>
			<circle id="Ellipse 4" r="1.470739" transform="matrix(-0.660344 -0.750963 0.750963 -0.660344 362.164 22.9868)" fill="#98B1E8" fill-opacity="1.000000"/>
			<path id="Polygon 1" d="M354.46 45.9L338.92 26.95L314.73 30.94L306.09 53.87L321.64 72.83L345.82 68.84L354.46 45.9ZM353.91 46L338.72 27.48L315.09 31.37L306.65 53.78L321.84 72.3L345.46 68.4L353.91 46Z" fill="#98B1E8" fill-opacity="1.000000" fill-rule="evenodd"/>
			<circle id="Ellipse 1" r="2.451231" transform="matrix(-0.634139 -0.773219 0.773219 -0.634139 321.448 72.3594)" fill="#98B1E8" fill-opacity="1.000000"/>
			<circle id="Ellipse 5" r="2.451231" transform="matrix(-0.634139 -0.773219 0.773219 -0.634139 338.436 27.3599)" fill="#98B1E8" fill-opacity="1.000000"/>
			<circle id="Ellipse 2" r="0.980492" transform="matrix(-0.634139 -0.773219 0.773219 -0.634139 306.215 53.7852)" fill="#98B1E8" fill-opacity="1.000000"/>
			<circle id="Ellipse 6" r="0.980492" transform="matrix(-0.634139 -0.773219 0.773219 -0.634139 354.359 46.0024)" fill="#98B1E8" fill-opacity="1.000000"/>
			<circle id="Ellipse 3" r="0.980492" transform="matrix(-0.634139 -0.773219 0.773219 -0.634139 345.52 68.4683)" fill="#98B1E8" fill-opacity="1.000000"/>
			<circle id="Ellipse 4" r="1.470738" transform="matrix(-0.634139 -0.773219 0.773219 -0.634139 315.05 31.3193)" fill="#98B1E8" fill-opacity="1.000000"/>
			<path id="Polygon 1" d="M338.55 28.06L362.48 22.77L369.88 -0.6L353.34 -18.69L329.41 -13.41L322.01 9.96L338.55 28.06ZM338.72 27.52L362.1 22.35L369.33 -0.48L353.17 -18.15L329.79 -13L322.56 9.83L338.72 27.52Z" fill="#98B1E8" fill-opacity="1.000000" fill-rule="evenodd"/>
			<circle id="Ellipse 1" r="2.451230" transform="matrix(0.976541 -0.21533 0.21533 0.976541 329.921 -13.3594)" fill="#98B1E8" fill-opacity="1.000000"/>
			<circle id="Ellipse 5" r="2.451230" transform="matrix(0.976541 -0.21533 0.21533 0.976541 362.352 22.1611)" fill="#98B1E8" fill-opacity="1.000000"/>
			<circle id="Ellipse 2" r="0.980492" transform="matrix(0.976541 -0.21533 0.21533 0.976541 353.379 -18.5317)" fill="#98B1E8" fill-opacity="1.000000"/>
			<circle id="Ellipse 6" r="0.980492" transform="matrix(0.976541 -0.21533 0.21533 0.976541 338.521 27.9189)" fill="#98B1E8" fill-opacity="1.000000"/>
			<circle id="Ellipse 3" r="0.980492" transform="matrix(0.976541 -0.21533 0.21533 0.976541 322.491 9.86621)" fill="#98B1E8" fill-opacity="1.000000"/>
			<circle id="Ellipse 4" r="1.470737" transform="matrix(0.976541 -0.21533 0.21533 0.976541 369.408 -0.483398)" fill="#98B1E8" fill-opacity="1.000000"/>
		</g>
		<rect id="free-icon-health-5762804 1" x="108.559082" y="268.201660" rx="-0.201483" width="185.805283" height="185.805283" transform="rotate(10.8056 108.559082 268.201660)" fill="#FFFFFF" fill-opacity="0"/>
		<mask id="mask14_933" mask-type="alpha" maskUnits="userSpaceOnUse" x="73.724609" y="268.201660" width="217.345215" height="217.345215">
			<rect id="free-icon-health-5762804 1" x="108.559082" y="268.201660" rx="-0.201483" width="185.805283" height="185.805283" transform="rotate(10.8056 108.559082 268.201660)" fill="#000000" fill-opacity="1.000000"/>
		</mask>
		<g mask="url(#mask14_933)">
			<path id="Vector" d="M238.18 394.03C237.07 396.84 238.47 398.01 239.83 399.2L241.39 391C240.67 391.23 240 391.63 239.45 392.15C238.89 392.68 238.46 393.32 238.18 394.03Z" fill="#98B1E8" fill-opacity="1.000000" fill-rule="nonzero"/>
			<path id="Vector" d="M243.89 408.97L241.65 420.7C242.79 420.43 243.85 419.87 244.73 419.08C245.61 418.3 246.28 417.31 246.69 416.2C247.24 414.87 247.26 413.37 246.73 412.03C246.21 410.68 245.19 409.58 243.89 408.97Z" fill="#98B1E8" fill-opacity="1.000000" fill-rule="nonzero"/>
			<path id="Vector" d="M269.46 355.02L189.44 339.75C187.17 339.32 184.82 339.81 182.9 341.11C180.99 342.41 179.67 344.42 179.23 346.69L158.5 455.29C158.07 457.56 158.56 459.91 159.86 461.83C161.16 463.74 163.17 465.06 165.44 465.5L245.46 480.77C247.74 481.2 250.09 480.72 252 479.41C253.92 478.11 255.24 476.11 255.67 473.83L276.4 365.23C276.82 362.96 276.34 360.61 275.04 358.69C273.74 356.78 271.74 355.46 269.46 355.02ZM206.98 351.98C207.13 351.23 207.57 350.56 208.2 350.12C208.84 349.69 209.63 349.53 210.38 349.67C211.14 349.82 211.81 350.26 212.25 350.89C212.68 351.53 212.84 352.32 212.7 353.08L211.6 358.79C211.46 359.55 211.62 360.33 212.06 360.97C212.49 361.61 213.16 362.05 213.92 362.19L236.78 366.56C237.54 366.7 238.32 366.54 238.96 366.11C239.6 365.67 240.04 365 240.18 364.25L241.28 358.53C241.42 357.77 241.86 357.1 242.5 356.67C243.14 356.24 243.92 356.07 244.68 356.22C245.44 356.36 246.11 356.8 246.54 357.44C246.97 358.08 247.14 358.86 246.99 359.62L245.9 365.34C245.46 367.61 244.14 369.62 242.23 370.92C240.32 372.22 237.96 372.71 235.69 372.27L212.83 367.91C210.55 367.47 208.55 366.15 207.25 364.24C205.95 362.33 205.46 359.97 205.89 357.7L206.98 351.98ZM190.64 375.52L224.93 382.07C225.69 382.21 226.36 382.65 226.79 383.29C227.23 383.93 227.39 384.71 227.25 385.47C227.1 386.23 226.66 386.9 226.02 387.33C225.39 387.77 224.6 387.93 223.84 387.79L189.55 381.24C188.79 381.09 188.12 380.65 187.69 380.02C187.25 379.38 187.09 378.59 187.24 377.84C187.38 377.08 187.82 376.41 188.46 375.97C189.1 375.54 189.88 375.38 190.64 375.52ZM193.08 393.76L221.66 399.22C222.42 399.36 223.09 399.8 223.52 400.44C223.96 401.08 224.12 401.86 223.97 402.62C223.83 403.38 223.39 404.05 222.75 404.48C222.11 404.91 221.33 405.08 220.57 404.93L191.99 399.48C191.23 399.33 190.56 398.89 190.13 398.26C189.7 397.62 189.53 396.83 189.68 396.07C189.82 395.32 190.26 394.65 190.9 394.21C191.54 393.78 192.32 393.62 193.08 393.76ZM184.09 409.82L218.39 416.36C219.15 416.51 219.82 416.95 220.25 417.59C220.68 418.23 220.85 419.01 220.7 419.77C220.56 420.53 220.12 421.19 219.48 421.63C218.84 422.06 218.06 422.22 217.3 422.08L183 415.53C182.25 415.39 181.57 414.95 181.14 414.31C180.71 413.67 180.55 412.89 180.69 412.13C180.84 411.37 181.28 410.7 181.91 410.27C182.55 409.84 183.34 409.67 184.09 409.82ZM239.33 461.83L176.46 449.83C175.7 449.68 175.03 449.24 174.6 448.61C174.16 447.97 174 447.18 174.15 446.43C174.29 445.67 174.73 445 175.37 444.56C176.01 444.13 176.79 443.97 177.55 444.11L240.42 456.11C241.18 456.26 241.85 456.7 242.28 457.34C242.72 457.97 242.88 458.76 242.74 459.52C242.59 460.28 242.15 460.94 241.51 461.38C240.87 461.81 240.09 461.97 239.33 461.83ZM242.6 444.68L179.73 432.68C178.97 432.54 178.3 432.1 177.87 431.46C177.44 430.82 177.27 430.04 177.42 429.28C177.56 428.52 178 427.85 178.64 427.42C179.28 426.98 180.06 426.82 180.82 426.97L243.7 438.97C244.45 439.11 245.12 439.55 245.56 440.19C245.99 440.83 246.15 441.61 246.01 442.37C245.86 443.13 245.42 443.8 244.79 444.23C244.15 444.66 243.36 444.83 242.6 444.68ZM252.15 418.23C251.25 420.63 249.67 422.7 247.6 424.2C245.53 425.71 243.06 426.57 240.51 426.68L239.99 429.37C239.85 430.13 239.41 430.8 238.77 431.23C238.13 431.67 237.35 431.83 236.59 431.69C235.83 431.54 235.16 431.1 234.73 430.46C234.29 429.82 234.13 429.04 234.28 428.28L234.74 425.87C231.85 425.13 229.23 423.58 227.19 421.4C226.64 420.86 226.32 420.13 226.31 419.36C226.3 418.59 226.59 417.85 227.13 417.3C227.66 416.74 228.39 416.42 229.16 416.41C229.93 416.39 230.68 416.68 231.23 417.22C232.47 418.59 234.06 419.59 235.83 420.12L238.6 405.62C233.54 402.06 230.26 398.28 232.76 391.9C233.51 389.9 234.84 388.16 236.58 386.92C238.33 385.69 240.4 385 242.54 384.97L243 382.56C243.15 381.8 243.59 381.13 244.23 380.69C244.87 380.26 245.65 380.1 246.41 380.24C247.17 380.39 247.84 380.83 248.27 381.47C248.7 382.1 248.86 382.89 248.72 383.65L248.3 385.84C250.57 386.68 252.58 388.09 254.13 389.94C254.59 390.56 254.78 391.33 254.67 392.09C254.56 392.85 254.15 393.54 253.54 394C252.92 394.46 252.15 394.66 251.39 394.55C250.63 394.45 249.94 394.04 249.47 393.43C248.83 392.7 248.06 392.1 247.19 391.66L245.05 402.88C245.67 403.26 246.3 403.64 246.91 404C249.39 405.31 251.29 407.48 252.26 410.11C253.22 412.74 253.19 415.63 252.15 418.23Z" fill="#98B1E8" fill-opacity="1.000000" fill-rule="nonzero"/>
			<path id="Vector" d="M242.49 319.85C238.77 318.34 235.59 315.76 233.33 312.45C231.08 309.14 229.84 305.24 229.79 301.22C229.76 299.22 229.04 297.29 227.75 295.75C226.46 294.2 224.69 293.17 222.72 292.78L141.5 277.29C139.53 276.91 137.5 277.22 135.74 278.19C133.97 279.15 132.59 280.68 131.82 282.53C130.3 286.24 127.71 289.42 124.4 291.66C121.08 293.91 117.17 295.13 113.16 295.17C111.16 295.2 109.24 295.93 107.71 297.2C106.18 298.5 105.15 300.28 104.78 302.25L100.7 323.59C96.69 344.42 99.78 365.99 109.48 384.87C119.17 403.74 134.89 418.82 154.16 427.7C154.6 427.91 155.07 428.01 155.55 427.97C176.73 426.81 196.91 418.58 212.87 404.6C228.83 390.62 239.65 371.7 243.6 350.86L247.67 329.52C248.06 327.56 247.75 325.51 246.8 323.76C245.86 322 244.33 320.62 242.49 319.85ZM237.88 349.77C234.2 369.2 224.14 386.88 209.31 399.97C194.47 413.08 175.7 420.87 155.95 422.12C138.05 413.68 123.46 399.53 114.5 381.88C105.53 364.24 102.69 344.11 106.42 324.68L110.49 303.34C110.61 302.69 110.94 302.1 111.43 301.68C111.93 301.25 112.55 301.01 113.21 300.99C118.36 300.94 123.39 299.37 127.66 296.47C131.92 293.59 135.25 289.51 137.21 284.74C137.46 284.12 137.92 283.62 138.5 283.29C139.09 282.97 139.77 282.88 140.42 283L221.63 298.5C222.28 298.63 222.87 298.97 223.29 299.47C223.72 299.99 223.96 300.63 223.97 301.29C224.04 306.45 225.62 311.47 228.53 315.72C231.43 319.99 235.53 323.29 240.3 325.25C240.9 325.51 241.39 325.95 241.7 326.54C242 327.12 242.09 327.79 241.96 328.43L237.88 349.77Z" fill="#3B61B9" fill-opacity="1.000000" fill-rule="evenodd"/>
			<path id="Vector" d="M227.83 331.51C220.79 326.35 215.75 318.94 213.55 310.5C213.41 309.97 213.12 309.48 212.72 309.1C212.32 308.73 211.82 308.48 211.28 308.37L146.39 295.99C145.86 295.89 145.3 295.94 144.78 296.14C144.28 296.35 143.84 296.69 143.5 297.13C138.36 304.17 130.92 309.21 122.49 311.4C121.96 311.54 121.48 311.82 121.1 312.23C120.73 312.63 120.47 313.13 120.37 313.67L117.85 326.85C114.69 343.1 116.83 359.93 123.95 374.87C131.07 389.81 142.8 402.06 157.41 409.83C157.92 410.11 158.53 410.23 159.12 410.16C175.56 408.32 190.98 401.24 203.1 389.98C215.22 378.71 223.41 363.85 226.45 347.59L228.97 334.4C229.07 333.86 229.02 333.3 228.82 332.79C228.62 332.28 228.28 331.83 227.83 331.51ZM220.74 346.5C217.95 361.39 210.5 375.01 199.47 385.4C188.44 395.78 174.39 402.39 159.35 404.27C146.07 396.98 135.45 385.67 129 371.95C122.58 358.23 120.67 342.82 123.57 327.95L125.75 316.53C134.14 313.95 141.59 308.91 147.08 302.04L208.42 313.75C211 322.16 216.05 329.59 222.92 335.07L220.74 346.5Z" fill="#3B61B9" fill-opacity="1.000000" fill-rule="nonzero"/>
			<path id="Vector" d="M195.16 340.84L186.58 339.21L188.22 330.63C188.65 328.36 188.16 326.01 186.86 324.09C185.56 322.18 183.56 320.85 181.28 320.42L169.85 318.24C167.58 317.81 165.23 318.29 163.31 319.6C161.39 320.9 160.08 322.9 159.64 325.18L158 333.75L149.42 332.11C147.16 331.68 144.81 332.17 142.89 333.47C140.98 334.77 139.66 336.78 139.22 339.05L137.03 350.48C136.61 352.76 137.1 355.11 138.39 357.02C139.7 358.94 141.7 360.26 143.98 360.69L152.55 362.33L150.91 370.9C150.48 373.18 150.97 375.53 152.27 377.44C153.57 379.36 155.58 380.68 157.85 381.11L169.28 383.3C171.56 383.73 173.91 383.24 175.82 381.94C177.74 380.64 179.06 378.63 179.49 376.36L181.13 367.78L189.7 369.42C191.98 369.85 194.33 369.36 196.24 368.06C198.16 366.76 199.48 364.76 199.91 362.48L202.1 351.05C202.53 348.78 202.04 346.43 200.74 344.51C199.44 342.6 197.43 341.28 195.16 340.84ZM194.2 361.39C194.05 362.15 193.61 362.82 192.97 363.25C192.34 363.69 191.55 363.85 190.79 363.71L179.36 361.52C178.99 361.45 178.6 361.45 178.23 361.53C177.85 361.61 177.5 361.76 177.18 361.97C176.87 362.19 176.6 362.46 176.39 362.78C176.18 363.1 176.03 363.46 175.96 363.84L173.78 375.27C173.63 376.02 173.19 376.69 172.55 377.13C171.92 377.56 171.13 377.72 170.37 377.58L158.94 375.4C158.17 375.25 157.5 374.81 157.08 374.17C156.64 373.54 156.49 372.75 156.63 371.99L158.81 360.56C158.88 360.19 158.88 359.8 158.8 359.43C158.73 359.05 158.57 358.7 158.36 358.38C158.14 358.07 157.87 357.8 157.55 357.59C157.23 357.38 156.87 357.23 156.5 357.16L145.07 354.98C144.31 354.83 143.64 354.39 143.21 353.75C142.77 353.12 142.61 352.33 142.75 351.57L144.94 340.14C145.08 339.39 145.52 338.72 146.16 338.28C146.8 337.85 147.58 337.69 148.34 337.83L159.77 340.01C160.14 340.08 160.53 340.08 160.91 340C161.28 339.93 161.64 339.78 161.95 339.56C162.27 339.35 162.53 339.07 162.75 338.75C162.96 338.43 163.1 338.07 163.17 337.7L165.36 326.26C165.5 325.51 165.94 324.84 166.58 324.41C167.22 323.97 168 323.81 168.76 323.96L180.19 326.14C180.95 326.28 181.62 326.72 182.05 327.35C182.49 328 182.65 328.78 182.51 329.54L180.32 340.97C180.25 341.35 180.25 341.73 180.33 342.11C180.41 342.48 180.56 342.84 180.77 343.15C180.99 343.47 181.26 343.74 181.58 343.95C181.9 344.16 182.26 344.3 182.64 344.38L194.07 346.56C194.82 346.7 195.49 347.14 195.93 347.78C196.36 348.42 196.52 349.2 196.38 349.96L194.2 361.39Z" fill="#3B61B9" fill-opacity="1.000000" fill-rule="nonzero"/>
		</g>
		<path id="Polygon 1" d="M392.57 472.85L397.16 443.62L374.15 425.02L346.54 435.66L341.94 464.89L364.96 483.48L392.57 472.85ZM392.04 472.42L396.53 443.86L374.04 425.7L347.07 436.09L342.58 464.64L365.06 482.81L392.04 472.42Z" fill="#98B1E8" fill-opacity="1.000000" fill-rule="evenodd"/>
		<circle id="Ellipse 1" r="2.958757" transform="matrix(0.155352 -0.987859 0.987859 0.155352 342.214 464.334)" fill="#98B1E8" fill-opacity="1.000000"/>
		<circle id="Ellipse 5" r="2.958757" transform="matrix(0.155352 -0.987859 0.987859 0.155352 396.407 443.504)" fill="#98B1E8" fill-opacity="1.000000"/>
		<circle id="Ellipse 2" r="1.183503" transform="matrix(0.155352 -0.987859 0.987859 0.155352 346.719 435.69)" fill="#98B1E8" fill-opacity="1.000000"/>
		<circle id="Ellipse 6" r="1.183503" transform="matrix(0.155352 -0.987859 0.987859 0.155352 392.395 472.824)" fill="#98B1E8" fill-opacity="1.000000"/>
		<circle id="Ellipse 3" r="1.183503" transform="matrix(0.155352 -0.987859 0.987859 0.155352 365.053 482.901)" fill="#98B1E8" fill-opacity="1.000000"/>
		<circle id="Ellipse 4" r="1.775254" transform="matrix(0.155352 -0.987859 0.987859 0.155352 374.062 425.613)" fill="#98B1E8" fill-opacity="1.000000"/>
		<path id="Polygon 1" d="M346.84 436.15L352.44 407.1L330.08 387.73L302.12 397.4L296.51 426.46L318.88 445.83L346.84 436.15ZM346.33 435.71L351.8 407.32L329.95 388.4L302.64 397.85L297.17 426.23L319.01 445.16L346.33 435.71Z" fill="#98B1E8" fill-opacity="1.000000" fill-rule="evenodd"/>
		<circle id="Ellipse 1" r="2.958758" transform="matrix(0.189219 -0.981935 0.981935 0.189219 296.813 425.913)" fill="#98B1E8" fill-opacity="1.000000"/>
		<circle id="Ellipse 5" r="2.958758" transform="matrix(0.189219 -0.981935 0.981935 0.189219 351.69 406.959)" fill="#98B1E8" fill-opacity="1.000000"/>
		<circle id="Ellipse 2" r="1.183503" transform="matrix(0.189219 -0.981935 0.981935 0.189219 302.299 397.441)" fill="#98B1E8" fill-opacity="1.000000"/>
		<circle id="Ellipse 6" r="1.183503" transform="matrix(0.189219 -0.981935 0.981935 0.189219 346.672 436.124)" fill="#98B1E8" fill-opacity="1.000000"/>
		<circle id="Ellipse 3" r="1.183503" transform="matrix(0.189219 -0.981935 0.981935 0.189219 318.999 445.255)" fill="#98B1E8" fill-opacity="1.000000"/>
		<circle id="Ellipse 4" r="1.775255" transform="matrix(0.189219 -0.981935 0.981935 0.189219 329.973 388.311)" fill="#98B1E8" fill-opacity="1.000000"/>
		<path id="Polygon 1" d="M351.13 407.61L374.5 425.75L401.9 414.59L405.93 385.28L382.56 367.13L355.16 378.3L351.13 407.61ZM351.76 407.35L374.59 425.08L401.36 414.17L405.29 385.53L382.46 367.81L355.7 378.72L351.76 407.35Z" fill="#98B1E8" fill-opacity="1.000000" fill-rule="evenodd"/>
		<circle id="Ellipse 1" r="2.958758" transform="matrix(0.78985 0.6133 -0.6133 0.78985 382.918 367.639)" fill="#98B1E8" fill-opacity="1.000000"/>
		<circle id="Ellipse 5" r="2.958758" transform="matrix(0.78985 0.6133 -0.6133 0.78985 374.972 425.151)" fill="#98B1E8" fill-opacity="1.000000"/>
		<circle id="Ellipse 2" r="1.183503" transform="matrix(0.78985 0.6133 -0.6133 0.78985 405.82 385.422)" fill="#98B1E8" fill-opacity="1.000000"/>
		<circle id="Ellipse 6" r="1.183503" transform="matrix(0.78985 0.6133 -0.6133 0.78985 351.239 407.472)" fill="#98B1E8" fill-opacity="1.000000"/>
		<circle id="Ellipse 3" r="1.183503" transform="matrix(0.78985 0.6133 -0.6133 0.78985 355.626 378.664)" fill="#98B1E8" fill-opacity="1.000000"/>
		<circle id="Ellipse 4" r="1.775255" transform="matrix(0.78985 0.6133 -0.6133 0.78985 401.432 414.23)" fill="#98B1E8" fill-opacity="1.000000"/>
		<path id="Polygon 1" d="M32.33 376.53L17.79 358.4L-5.17 361.92L-13.61 383.57L0.92 401.7L23.89 398.18L32.33 376.53ZM31.79 376.61L17.6 358.9L-4.84 362.34L-13.08 383.49L1.12 401.2L23.56 397.76L31.79 376.61Z" fill="#98B1E8" fill-opacity="1.000000" fill-rule="evenodd"/>
		<circle id="Ellipse 1" r="2.323452" transform="matrix(-0.625426 -0.780283 0.780283 -0.625426 0.756836 401.255)" fill="#98B1E8" fill-opacity="1.000000"/>
		<circle id="Ellipse 5" r="2.323452" transform="matrix(-0.625426 -0.780283 0.780283 -0.625426 17.3359 358.785)" fill="#98B1E8" fill-opacity="1.000000"/>
		<circle id="Ellipse 2" r="0.929381" transform="matrix(-0.625426 -0.780283 0.780283 -0.625426 -13.4844 383.489)" fill="#98B1E8" fill-opacity="1.000000"/>
		<circle id="Ellipse 6" r="0.929381" transform="matrix(-0.625426 -0.780283 0.780283 -0.625426 32.23 376.625)" fill="#98B1E8" fill-opacity="1.000000"/>
		<circle id="Ellipse 3" r="0.929381" transform="matrix(-0.625426 -0.780283 0.780283 -0.625426 23.6143 397.823)" fill="#98B1E8" fill-opacity="1.000000"/>
		<circle id="Ellipse 4" r="1.394071" transform="matrix(-0.625426 -0.780283 0.780283 -0.625426 -4.86816 362.29)" fill="#98B1E8" fill-opacity="1.000000"/>
		<path id="Polygon 1" d="M78.11 369.63L63.58 351.5L40.61 355.02L32.18 376.67L46.71 394.8L69.67 391.28L78.11 369.63ZM77.58 369.71L63.38 352L40.95 355.44L32.71 376.59L46.9 394.3L69.34 390.86L77.58 369.71Z" fill="#98B1E8" fill-opacity="1.000000" fill-rule="evenodd"/>
		<circle id="Ellipse 1" r="2.323452" transform="matrix(-0.625426 -0.780283 0.780283 -0.625426 46.5312 394.355)" fill="#98B1E8" fill-opacity="1.000000"/>
		<circle id="Ellipse 5" r="2.323452" transform="matrix(-0.625426 -0.780283 0.780283 -0.625426 63.1108 351.885)" fill="#98B1E8" fill-opacity="1.000000"/>
		<circle id="Ellipse 2" r="0.929381" transform="matrix(-0.625426 -0.780283 0.780283 -0.625426 32.29 376.588)" fill="#98B1E8" fill-opacity="1.000000"/>
		<circle id="Ellipse 6" r="0.929381" transform="matrix(-0.625426 -0.780283 0.780283 -0.625426 78.0039 369.724)" fill="#98B1E8" fill-opacity="1.000000"/>
		<circle id="Ellipse 3" r="0.929381" transform="matrix(-0.625426 -0.780283 0.780283 -0.625426 69.3892 390.922)" fill="#98B1E8" fill-opacity="1.000000"/>
		<circle id="Ellipse 4" r="1.394071" transform="matrix(-0.625426 -0.780283 0.780283 -0.625426 40.9067 355.389)" fill="#98B1E8" fill-opacity="1.000000"/>
		<path id="Polygon 1" d="M-18 406.15L-13.25 383.4L-30.59 367.92L-52.65 375.18L-57.4 397.93L-40.08 413.41L-18 406.15ZM-18.4 405.79L-13.77 383.57L-30.69 368.45L-52.25 375.54L-56.89 397.76L-39.96 412.89L-18.4 405.79Z" fill="#98B1E8" fill-opacity="1.000000" fill-rule="evenodd"/>
		<circle id="Ellipse 1" r="2.323453" transform="matrix(0.204231 -0.978923 0.978923 0.204231 -57.1567 397.508)" fill="#98B1E8" fill-opacity="1.000000"/>
		<circle id="Ellipse 5" r="2.323453" transform="matrix(0.204231 -0.978923 0.978923 0.204231 -13.8398 383.284)" fill="#98B1E8" fill-opacity="1.000000"/>
		<circle id="Ellipse 2" r="0.929381" transform="matrix(0.204231 -0.978923 0.978923 0.204231 -52.5063 375.218)" fill="#98B1E8" fill-opacity="1.000000"/>
		<circle id="Ellipse 6" r="0.929381" transform="matrix(0.204231 -0.978923 0.978923 0.204231 -18.1304 406.124)" fill="#98B1E8" fill-opacity="1.000000"/>
		<circle id="Ellipse 3" r="0.929381" transform="matrix(0.204231 -0.978923 0.978923 0.204231 -39.9683 412.961)" fill="#98B1E8" fill-opacity="1.000000"/>
		<circle id="Ellipse 4" r="1.394072" transform="matrix(0.204231 -0.978923 0.978923 0.204231 -30.668 368.381)" fill="#98B1E8" fill-opacity="1.000000"/>
		<path id="Polygon 1" d="M26.64 336.59L11.68 318.81L-11.19 322.89L-19.11 344.73L-4.13 362.51L18.73 358.43L26.64 336.59ZM26.12 336.68L11.5 319.32L-10.85 323.29L-18.58 344.64L-3.96 362L18.39 358.02L26.12 336.68Z" fill="#98B1E8" fill-opacity="1.000000" fill-rule="evenodd"/>
		<circle id="Ellipse 1" r="2.323453" transform="matrix(-0.644107 -0.764936 0.764936 -0.644107 -4.32031 362.066)" fill="#98B1E8" fill-opacity="1.000000"/>
		<circle id="Ellipse 5" r="2.323453" transform="matrix(-0.644107 -0.764936 0.764936 -0.644107 11.228 319.208)" fill="#98B1E8" fill-opacity="1.000000"/>
		<circle id="Ellipse 2" r="0.929381" transform="matrix(-0.644107 -0.764936 0.764936 -0.644107 -18.9863 344.649)" fill="#98B1E8" fill-opacity="1.000000"/>
		<circle id="Ellipse 6" r="0.929381" transform="matrix(-0.644107 -0.764936 0.764936 -0.644107 26.5488 336.681)" fill="#98B1E8" fill-opacity="1.000000"/>
		<circle id="Ellipse 3" r="0.929381" transform="matrix(-0.644107 -0.764936 0.764936 -0.644107 18.4478 358.082)" fill="#98B1E8" fill-opacity="1.000000"/>
		<circle id="Ellipse 4" r="1.394072" transform="matrix(-0.644107 -0.764936 0.764936 -0.644107 -10.8848 323.247)" fill="#98B1E8" fill-opacity="1.000000"/>
		<path id="Polygon 1" d="M11.35 319.87L33.97 314.57L40.69 292.32L24.79 275.39L2.17 280.68L-4.55 302.92L11.35 319.87ZM11.5 319.35L33.6 314.18L40.17 292.45L24.64 275.9L2.54 281.07L-4.03 302.79L11.5 319.35Z" fill="#98B1E8" fill-opacity="1.000000" fill-rule="evenodd"/>
		<circle id="Ellipse 1" r="2.323453" transform="matrix(0.973669 -0.227968 0.227968 0.973669 2.66016 280.719)" fill="#98B1E8" fill-opacity="1.000000"/>
		<circle id="Ellipse 5" r="2.323453" transform="matrix(0.973669 -0.227968 0.227968 0.973669 33.835 313.987)" fill="#98B1E8" fill-opacity="1.000000"/>
		<circle id="Ellipse 2" r="0.929381" transform="matrix(0.973669 -0.227968 0.227968 0.973669 24.8311 275.528)" fill="#98B1E8" fill-opacity="1.000000"/>
		<circle id="Ellipse 6" r="0.929381" transform="matrix(0.973669 -0.227968 0.227968 0.973669 11.3179 319.736)" fill="#98B1E8" fill-opacity="1.000000"/>
		<circle id="Ellipse 3" r="0.929381" transform="matrix(0.973669 -0.227968 0.227968 0.973669 -4.0957 302.823)" fill="#98B1E8" fill-opacity="1.000000"/>
		<circle id="Ellipse 4" r="1.394072" transform="matrix(0.973669 -0.227968 0.227968 0.973669 40.2451 292.441)" fill="#98B1E8" fill-opacity="1.000000"/>
	</g>
</svg>
