<svg width="32" height="32" viewBox="0 0 32 32" fill="none" xmlns="http://www.w3.org/2000/svg">
<path d="M11.1948 3.40293C13.1613 2.18447 14.8777 2.6755 15.9088 3.45765C16.3316 3.77834 16.5429 3.93869 16.6673 3.93869C16.7917 3.93869 17.0031 3.77834 17.4258 3.45765C18.4569 2.6755 20.1733 2.18447 22.1399 3.40293C24.7207 5.00203 25.3047 10.2775 19.3517 14.7283C18.2178 15.576 17.6509 15.9999 16.6673 15.9999C15.6838 15.9999 15.1168 15.576 13.983 14.7283C8.02991 10.2775 8.6139 5.00203 11.1948 3.40293Z" stroke="#3B61B9" stroke-width="2" stroke-linecap="round"/>
<path d="M5.33398 18.667H8.52708C8.91927 18.667 9.30609 18.7554 9.65688 18.9251L12.3795 20.2424C12.7303 20.4121 13.1171 20.5005 13.5093 20.5005H14.8995C16.244 20.5005 17.334 21.5552 17.334 22.8563C17.334 22.9089 17.298 22.9551 17.2457 22.9696L13.8578 23.9063C13.2501 24.0743 12.5993 24.0158 12.034 23.7422L9.12346 22.334" stroke="#3B61B9" stroke-width="2" stroke-linecap="round" stroke-linejoin="round"/>
<path d="M17.334 22L23.4577 20.1186C24.5433 19.7803 25.7168 20.1814 26.3968 21.1231C26.8885 21.8039 26.6883 22.7789 25.9719 23.1922L15.9512 28.974C15.3138 29.3418 14.5619 29.4315 13.8609 29.2235L5.33398 26.6933" stroke="#3B61B9" stroke-width="2" stroke-linecap="round" stroke-linejoin="round"/>
</svg>
