<svg width="32" height="32" viewBox="0 0 32 32" fill="none" xmlns="http://www.w3.org/2000/svg">
<path d="M23.0001 28.0003C20.2796 28.0003 18.0742 25.7949 18.0742 23.0744L18.0742 2.66699L27.9261 2.66699L27.9261 23.0744C27.9261 25.7949 25.7207 28.0003 23.0001 28.0003Z" stroke="#3B61B9" stroke-width="2"/>
<path d="M29.3334 2.66699L16.6667 2.66699" stroke="#3B61B9" stroke-width="2" stroke-linecap="round"/>
<path d="M22.2964 8.2959H18.0742" stroke="#3B61B9" stroke-width="2" stroke-linecap="round"/>
<path d="M12.4446 22.1945C12.4446 26.4696 9.62975 28 6.81493 28C4.00012 28 1.1853 26.4696 1.1853 22.1945C1.1853 17.9194 6.81493 12.5186 6.81493 12.5186C6.81493 12.5186 12.4446 17.9194 12.4446 22.1945Z" stroke="#3B61B9" stroke-width="2" stroke-linejoin="round"/>
<path d="M18.0742 15.3334C19.5985 14.114 21.3076 12.3475 23.3815 13.5918C25.1133 14.6309 26.5667 13.5381 27.9261 12.5186" stroke="#3B61B9" stroke-width="2" stroke-linecap="round"/>
</svg>
