<svg width="48" height="48" viewBox="0 0 48 48" fill="none" xmlns="http://www.w3.org/2000/svg">
<path d="M1.46073 9.60519H9.45817C9.87657 9.60519 10.2158 9.266 10.2158 8.8476V7.33232C10.2158 6.91391 9.87657 6.57472 9.45817 6.57472H1.46073C1.04232 6.57472 0.703135 6.91391 0.703135 7.33232V8.8476C0.703135 9.266 1.04232 9.60519 1.46073 9.60519Z" fill="#99E6FC"/>
<path d="M1.46073 6.57472H4.30182C3.88341 6.57472 3.54423 6.91391 3.54423 7.33232V8.8476C3.54423 9.266 3.88341 9.60519 4.30182 9.60519H1.46073C1.04232 9.60519 0.703133 9.266 0.703133 8.8476V7.33232C0.703133 6.91391 1.04232 6.57472 1.46073 6.57472Z" fill="#62DBFB"/>
<path d="M1.95544 9.60519H8.96344V20.2119H1.95544V9.60519Z" fill="#DFF6FD"/>
<path d="M5.45944 41.4253C7.39463 41.4253 8.96344 39.8565 8.96344 37.9213V20.212H1.95544V37.9213C1.95544 39.8565 3.52425 41.4253 5.45944 41.4253Z" fill="#FFE177"/>
<path d="M1.95548 9.60519H4.79657V20.2119H1.95548V9.60519Z" fill="#C8EFFE"/>
<path d="M4.79657 20.2119V37.9213C4.79657 39.3506 5.65288 40.5792 6.88007 41.1243C6.44572 41.3173 5.96535 41.4252 5.45957 41.4252C3.52438 41.4252 1.95557 39.8564 1.95557 37.9213V20.2119H4.79657Z" fill="#FFD15B"/>
<path d="M14.3158 9.60519H21.3238V24H14.3158V9.60519Z" fill="#DFF6FD"/>
<path d="M17.8198 41.4253C19.755 41.4253 21.3238 39.8565 21.3238 37.9213V24H14.3158V37.9213C14.3158 39.8565 15.8846 41.4253 17.8198 41.4253Z" fill="#6CF5C2"/>
<path d="M14.3158 9.60519H17.1569V24H14.3158V9.60519Z" fill="#C8EFFE"/>
<path d="M17.1569 24V37.9213C17.1569 39.3507 18.0132 40.5793 19.2404 41.1244C18.8061 41.3173 18.3258 41.4253 17.8199 41.4253C15.8847 41.4253 14.3159 39.8565 14.3159 37.9213V24H17.1569Z" fill="#00F2A6"/>
<path d="M26.6762 9.60519H33.6842V20.2119H26.6762V9.60519Z" fill="#DFF6FD"/>
<path d="M30.1802 41.4253C32.1154 41.4253 33.6842 39.8565 33.6842 37.9213V20.212H26.6762V37.9213C26.6762 39.8565 28.245 41.4253 30.1802 41.4253Z" fill="#528FD8"/>
<path d="M26.6762 9.60519H29.5173V20.2119H26.6762V9.60519Z" fill="#C8EFFE"/>
<path d="M29.5172 20.2119V37.9213C29.5172 39.3506 30.3736 40.5792 31.6006 41.1243C31.1663 41.3173 30.686 41.4252 30.1801 41.4252C28.245 41.4252 26.6761 39.8564 26.6761 37.9213V20.2119H29.5172Z" fill="#0573CE"/>
<path d="M39.0366 9.60519H46.0446V17.3708H39.0366V9.60519Z" fill="#DFF6FD"/>
<path d="M42.5406 41.4253C44.4757 41.4253 46.0446 39.8565 46.0446 37.9213V17.3709H39.0366V37.9213C39.0366 39.8565 40.6053 41.4253 42.5406 41.4253Z" fill="#FE93D3"/>
<path d="M39.0366 9.60519H41.8777V17.3708H39.0366V9.60519Z" fill="#C8EFFE"/>
<path d="M41.8777 17.3709V37.9213C41.8777 39.3507 42.734 40.5793 43.9612 41.1244C43.5268 41.3173 43.0465 41.4253 42.5407 41.4253C40.6055 41.4253 39.0367 39.8565 39.0367 37.9213V17.3709H41.8777Z" fill="#FE73C5"/>
<path d="M13.8211 9.60519H21.8185C22.2369 9.60519 22.5761 9.266 22.5761 8.8476V7.33232C22.5761 6.91391 22.2369 6.57472 21.8185 6.57472H13.8211C13.4027 6.57472 13.0635 6.91391 13.0635 7.33232V8.8476C13.0635 9.266 13.4027 9.60519 13.8211 9.60519Z" fill="#99E6FC"/>
<path d="M26.1815 9.60519H34.1789C34.5973 9.60519 34.9365 9.266 34.9365 8.8476V7.33232C34.9365 6.91391 34.5973 6.57472 34.1789 6.57472H26.1815C25.7631 6.57472 25.4239 6.91391 25.4239 7.33232V8.8476C25.4239 9.266 25.7631 9.60519 26.1815 9.60519Z" fill="#99E6FC"/>
<path d="M38.5418 9.60519H46.5393C46.9577 9.60519 47.2969 9.266 47.2969 8.84759V7.33231C47.2969 6.91391 46.9577 6.57472 46.5393 6.57472H38.5418C38.1234 6.57472 37.7842 6.91391 37.7842 7.33231V8.84759C37.7842 9.266 38.1234 9.60519 38.5418 9.60519Z" fill="#99E6FC"/>
<path d="M13.8211 6.57472H16.6622C16.2438 6.57472 15.9046 6.91391 15.9046 7.33232V8.8476C15.9046 9.266 16.2438 9.60519 16.6622 9.60519H13.8211C13.4027 9.60519 13.0635 9.266 13.0635 8.8476V7.33232C13.0635 6.91391 13.4027 6.57472 13.8211 6.57472Z" fill="#62DBFB"/>
<path d="M26.1814 6.57472H29.0225C28.6041 6.57472 28.2649 6.91391 28.2649 7.33232V8.8476C28.2649 9.266 28.6041 9.60519 29.0225 9.60519H26.1814C25.763 9.60519 25.4238 9.266 25.4238 8.8476V7.33232C25.4238 6.91391 25.763 6.57472 26.1814 6.57472Z" fill="#62DBFB"/>
<path d="M38.5418 6.57472H41.3829C40.9645 6.57472 40.6253 6.91391 40.6253 7.33232V8.8476C40.6253 9.266 40.9645 9.60519 41.3829 9.60519H38.5418C38.1234 9.60519 37.7842 9.266 37.7842 8.8476V7.33232C37.7841 6.91391 38.1234 6.57472 38.5418 6.57472Z" fill="#62DBFB"/>
<path d="M1.46073 9.60519H9.45817C9.87657 9.60519 10.2158 9.266 10.2158 8.8476V7.33232C10.2158 6.91391 9.87657 6.57472 9.45817 6.57472H1.46073C1.04232 6.57472 0.703135 6.91391 0.703135 7.33232V8.8476C0.703135 9.266 1.04232 9.60519 1.46073 9.60519Z" stroke="black" stroke-width="1.40625" stroke-miterlimit="10" stroke-linecap="round" stroke-linejoin="round"/>
<path d="M13.8211 9.60519H21.8185C22.2369 9.60519 22.5761 9.266 22.5761 8.8476V7.33232C22.5761 6.91391 22.2369 6.57472 21.8185 6.57472H13.8211C13.4027 6.57472 13.0635 6.91391 13.0635 7.33232V8.8476C13.0635 9.266 13.4027 9.60519 13.8211 9.60519Z" stroke="black" stroke-width="1.40625" stroke-miterlimit="10" stroke-linecap="round" stroke-linejoin="round"/>
<path d="M26.1815 9.60519H34.1789C34.5973 9.60519 34.9365 9.266 34.9365 8.8476V7.33232C34.9365 6.91391 34.5973 6.57472 34.1789 6.57472H26.1815C25.7631 6.57472 25.4239 6.91391 25.4239 7.33232V8.8476C25.4239 9.266 25.7631 9.60519 26.1815 9.60519Z" stroke="black" stroke-width="1.40625" stroke-miterlimit="10" stroke-linecap="round" stroke-linejoin="round"/>
<path d="M38.5418 9.60519H46.5393C46.9577 9.60519 47.2969 9.266 47.2969 8.84759V7.33231C47.2969 6.91391 46.9577 6.57472 46.5393 6.57472H38.5418C38.1234 6.57472 37.7842 6.91391 37.7842 7.33231V8.84759C37.7842 9.266 38.1234 9.60519 38.5418 9.60519Z" stroke="black" stroke-width="1.40625" stroke-miterlimit="10" stroke-linecap="round" stroke-linejoin="round"/>
<path d="M39.0366 12.2766V9.60566" stroke="black" stroke-width="1.40625" stroke-miterlimit="10" stroke-linecap="round" stroke-linejoin="round"/>
<path d="M39.0366 15.5578V37.921C39.0366 38.8894 39.4284 39.765 40.0631 40.3988C40.6969 41.0335 41.5725 41.4253 42.5409 41.4253C44.4759 41.4253 46.0444 39.8569 46.0444 37.921V9.60566" stroke="black" stroke-width="1.40625" stroke-miterlimit="10" stroke-linecap="round" stroke-linejoin="round"/>
<path d="M33.6842 9.60519V37.9214C33.6842 39.8565 32.1154 41.4253 30.1802 41.4253C28.245 41.4253 26.6762 39.8565 26.6762 37.9214V9.60519" stroke="black" stroke-width="1.40625" stroke-miterlimit="10" stroke-linecap="round" stroke-linejoin="round"/>
<path d="M14.3157 9.60566V37.921C14.3157 38.8894 14.7075 39.765 15.3422 40.3988C15.9769 41.0335 16.8525 41.4253 17.82 41.4253C19.755 41.4253 21.3235 39.8569 21.3235 37.921V29.97" stroke="black" stroke-width="1.40625" stroke-miterlimit="10" stroke-linecap="round" stroke-linejoin="round"/>
<path d="M21.3235 26.6888V9.60566" stroke="black" stroke-width="1.40625" stroke-miterlimit="10" stroke-linecap="round" stroke-linejoin="round"/>
<path d="M1.95563 9.60566V37.921C1.95563 38.8894 2.3475 39.765 2.98125 40.3988C3.61594 41.0335 4.49157 41.4253 5.45907 41.4253C7.395 41.4253 8.96344 39.8569 8.96344 37.921V16.5488" stroke="black" stroke-width="1.40625" stroke-miterlimit="10" stroke-linecap="round" stroke-linejoin="round"/>
<path d="M8.96344 13.2675V9.60566" stroke="black" stroke-width="1.40625" stroke-miterlimit="10" stroke-linecap="round" stroke-linejoin="round"/>
<path d="M46.0446 17.3709H39.0366" stroke="black" stroke-width="1.40625" stroke-miterlimit="10" stroke-linecap="round" stroke-linejoin="round"/>
<path d="M33.6842 20.2119H26.6762" stroke="black" stroke-width="1.40625" stroke-miterlimit="10" stroke-linecap="round" stroke-linejoin="round"/>
<path d="M21.3238 24H14.3158" stroke="black" stroke-width="1.40625" stroke-miterlimit="10" stroke-linecap="round" stroke-linejoin="round"/>
<path d="M8.96344 20.2119H1.95544" stroke="black" stroke-width="1.40625" stroke-miterlimit="10" stroke-linecap="round" stroke-linejoin="round"/>
</svg>
