<svg width="49" height="48" viewBox="0 0 49 48" fill="none" xmlns="http://www.w3.org/2000/svg">
<g clip-path="url(#clip0_1012_511)">
<path d="M21.4939 17.7407L33.0246 29.2714L30.6283 31.6678L19.9675 21.0069L21.4939 17.7407Z" fill="#A8D3D8"/>
<path d="M9.41904 0.885695L22.3532 13.8199C23.727 15.1936 23.727 17.4209 22.3532 18.7947L19.1936 21.9543C18.9491 22.1988 18.5528 22.1988 18.3083 21.9543L3.32929 6.97535C3.08486 6.73092 3.08486 6.33458 3.32929 6.09006L8.53375 0.885601C8.77818 0.641262 9.17461 0.641262 9.41904 0.885695Z" fill="#CBE5E8"/>
<path d="M3.32929 6.97545L13.7235 17.3696C13.5282 16.8497 13.3548 16.3122 13.2065 15.7583C12.1818 11.9295 12.5625 8.17617 13.9873 5.45397L9.41914 0.885786C9.17471 0.641354 8.77837 0.641354 8.53384 0.885786L3.32939 6.09025C3.08486 6.33458 3.08486 6.73092 3.32929 6.97545Z" fill="#A8D3D8"/>
<path d="M34.1786 29.2018L44.771 39.7943C45.7705 40.7938 45.7705 42.4145 44.771 43.4141C43.7714 44.4136 42.1508 44.4136 41.1512 43.4141L30.5589 32.8217C30.2594 32.5223 30.2594 32.0368 30.5589 31.7374L33.0943 29.2019C33.3936 28.9024 33.8791 28.9024 34.1786 29.2018Z" fill="#CBE5E8"/>
<path d="M30.5588 32.8217L41.1511 43.414C42.1482 44.4111 43.7629 44.4134 44.7631 43.4215C44.6833 43.3588 44.606 43.2913 44.5324 43.2177L35.2288 33.9141C34.2175 32.9029 34.2175 31.2634 35.2288 30.2521L34.1785 29.2019C33.8791 28.9025 33.3936 28.9025 33.0942 29.2019L30.5588 31.7374C30.2594 32.0368 30.2594 32.5222 30.5588 32.8217Z" fill="#A8D3D8"/>
<path d="M27.8558 19.4396L30.4464 22.0302C30.7639 22.3478 30.7639 22.8628 30.4464 23.1803L16.6423 36.9845C16.3247 37.3021 15.8097 37.3021 15.4921 36.9845L12.9015 34.3939C12.5839 34.0763 12.5839 33.5613 12.9015 33.2438L26.7055 19.4396C27.0232 19.122 27.5381 19.122 27.8558 19.4396Z" fill="#678D98"/>
<path d="M8.67301 17.9659L10.8716 20.1645C11.1543 20.4473 11.1543 20.9056 10.8716 21.1882L9.7532 22.3066C9.47046 22.5894 9.01212 22.5894 8.72948 22.3066L6.5309 20.1081L8.67301 17.9659Z" fill="#CBE5E8"/>
<path d="M16.1111 15.1679C15.0612 15.1679 14.2101 16.019 14.2101 17.0688C14.2101 18.1187 15.0612 18.9698 16.1111 18.9698C17.161 18.9698 18.012 18.1187 18.012 17.0688C18.012 16.019 17.161 15.1679 16.1111 15.1679Z" fill="#7CA1B1"/>
<path d="M41.5472 36.5705L44.771 39.7943C45.7705 40.7938 45.7705 42.4145 44.771 43.4141C43.7714 44.4136 42.1508 44.4136 41.1512 43.4141L30.5589 32.8217C30.2594 32.5223 30.2594 32.0368 30.5589 31.7374L33.0943 29.2019C33.3937 28.9025 33.8792 28.9025 34.1786 29.2019L39.0925 34.1158" stroke="black" stroke-width="1.40479" stroke-miterlimit="10" stroke-linecap="round" stroke-linejoin="round"/>
<path d="M22.3097 23.349L20.3225 21.362" stroke="black" stroke-width="1.40479" stroke-miterlimit="10" stroke-linecap="round" stroke-linejoin="round"/>
<path d="M28.831 25.0777L33.0246 29.2714L30.6283 31.6678L26.469 27.5084" stroke="black" stroke-width="1.40479" stroke-miterlimit="10" stroke-linecap="round" stroke-linejoin="round"/>
<path d="M22.723 18.9698L24.7311 20.9778" stroke="black" stroke-width="1.40479" stroke-miterlimit="10" stroke-linecap="round" stroke-linejoin="round"/>
<path d="M27.8558 19.4396L30.4464 22.0302C30.7639 22.3478 30.7639 22.8628 30.4464 23.1803L16.6423 36.9845C16.3247 37.3021 15.8097 37.3021 15.4921 36.9845L12.9015 34.3939C12.5839 34.0763 12.5839 33.5613 12.9015 33.2438L26.7055 19.4396C27.0232 19.122 27.5381 19.122 27.8558 19.4396Z" stroke="black" stroke-width="1.40479" stroke-miterlimit="10" stroke-linecap="round" stroke-linejoin="round"/>
<path d="M6.8525 10.4986L3.32938 6.97546C3.08495 6.73103 3.08495 6.33469 3.32938 6.09016L8.53384 0.885705C8.77827 0.641272 9.17461 0.641272 9.41914 0.885705L22.3532 13.8199C23.727 15.1937 23.727 17.4209 22.3532 18.7947" stroke="black" stroke-width="1.40479" stroke-miterlimit="10" stroke-linecap="round" stroke-linejoin="round"/>
<path d="M22.3532 18.7948L19.1936 21.9544C18.9491 22.1988 18.5528 22.1988 18.3083 21.9544L9.82176 13.4679" stroke="black" stroke-width="1.40479" stroke-miterlimit="10" stroke-linecap="round" stroke-linejoin="round"/>
<path d="M17.3551 28.7901L10.3125 21.7475" stroke="black" stroke-width="1.40479" stroke-miterlimit="10" stroke-linecap="round" stroke-linejoin="round"/>
<path d="M28.7723 24.8545L25.0316 21.1136" stroke="black" stroke-width="1.40479" stroke-miterlimit="10" stroke-linecap="round" stroke-linejoin="round"/>
<path d="M26.2037 27.4231L22.4629 23.6822" stroke="black" stroke-width="1.40479" stroke-miterlimit="10" stroke-linecap="round" stroke-linejoin="round"/>
<path d="M23.6351 29.9917L19.8943 26.2509" stroke="black" stroke-width="1.40479" stroke-miterlimit="10" stroke-linecap="round" stroke-linejoin="round"/>
<path d="M21.0665 32.5604L17.3257 28.8195" stroke="black" stroke-width="1.40479" stroke-miterlimit="10" stroke-linecap="round" stroke-linejoin="round"/>
<path d="M18.4979 35.129L14.7571 31.3881" stroke="black" stroke-width="1.40479" stroke-miterlimit="10" stroke-linecap="round" stroke-linejoin="round"/>
<path d="M35.8626 47.2976L21.0959 32.5309" stroke="black" stroke-width="1.40479" stroke-miterlimit="10" stroke-linecap="round" stroke-linejoin="round"/>
<path d="M8.67301 17.966L10.8716 20.1645C11.1543 20.4473 11.1543 20.9056 10.8716 21.1883L9.7532 22.3067C9.47046 22.5894 9.01212 22.5894 8.72948 22.3067L6.5309 20.1081L8.67301 17.966Z" stroke="black" stroke-width="1.40479" stroke-miterlimit="10" stroke-linecap="round" stroke-linejoin="round"/>
<path d="M5.55953 21.0794L9.66507 16.9739" stroke="black" stroke-width="1.40479" stroke-miterlimit="10" stroke-linecap="round" stroke-linejoin="round"/>
<path d="M16.1111 15.1679C15.0612 15.1679 14.2101 16.019 14.2101 17.0689C14.2101 18.1187 15.0612 18.9698 16.1111 18.9698C17.161 18.9698 18.012 18.1187 18.012 17.0689C18.012 16.019 17.161 15.1679 16.1111 15.1679Z" stroke="black" stroke-width="1.40479" stroke-miterlimit="10" stroke-linecap="round" stroke-linejoin="round"/>
</g>
<defs>
<clipPath id="clip0_1012_511">
<rect width="48" height="48" fill="white" transform="matrix(-1 0 0 -1 48.3333 48)"/>
</clipPath>
</defs>
</svg>
