<svg width="49" height="48" viewBox="0 0 49 48" fill="none" xmlns="http://www.w3.org/2000/svg">
<g clip-path="url(#clip0_1012_540)">
<mask id="mask0_1012_540" style="mask-type:luminance" maskUnits="userSpaceOnUse" x="0" y="0" width="49" height="48">
<path d="M48.6667 3.8147e-06H0.66663V48.0001H48.6667V3.8147e-06Z" fill="white"/>
</mask>
<g mask="url(#mask0_1012_540)">
<path d="M30.0432 16.8314V38.3368H47.9636V29.3761L44.3795 25.7921L41.5023 18.5996C41.0748 17.5318 40.0407 16.8314 38.8904 16.8314H30.0432Z" fill="#EAF6FF"/>
<path d="M30.0432 38.3368H47.9636V36.4618H30.0432V38.3368Z" fill="#D8ECFE"/>
<path d="M30.0428 14.6541V38.3363H1.37016V14.6541C1.37016 13.8774 1.99978 13.2478 2.77641 13.2478H28.6365C29.4132 13.2478 30.0428 13.8774 30.0428 14.6541Z" fill="#EAF6FF"/>
<path d="M1.36977 36.4617V38.3367H30.0432V14.6536C30.0432 13.8773 29.4132 13.2473 28.637 13.2473H27.2307V36.4617H1.36977Z" fill="#D8ECFE"/>
<path d="M36.078 16.8314C37.2283 16.8314 38.2623 17.5318 38.6898 18.5996L41.567 25.7921L45.1511 29.3761V38.3368H47.9636V29.3761L44.3795 25.7921L41.5023 18.5996C41.0748 17.5318 40.0408 16.8314 38.8905 16.8314H36.078Z" fill="#D8ECFE"/>
<path d="M33.6273 16.8314V22.9796C33.6273 24.533 34.8863 25.7921 36.4398 25.7921H44.3795L41.5023 18.5996C41.0748 17.5318 40.0407 16.8314 38.8904 16.8314H33.6273Z" fill="#8AC9FE"/>
<path d="M36.0779 16.8314C37.2283 16.8314 38.2623 17.5318 38.6898 18.5996L41.567 25.7921H44.3795L41.5023 18.5996C41.0748 17.5318 40.0408 16.8314 38.8904 16.8314H36.0779Z" fill="#60B8FE"/>
<path d="M34.832 38.3367H30.0433V16.8314H38.8905C40.0408 16.8314 41.0748 17.5317 41.5023 18.5995L44.3795 25.792L47.9636 29.3761V38.3367H43.1739" stroke="black" stroke-width="1.40625" stroke-miterlimit="10" stroke-linecap="round" stroke-linejoin="round"/>
<path d="M23.8342 38.3367H30.0432V14.6536C30.0432 13.8773 29.4132 13.2473 28.637 13.2473H10.0707" stroke="black" stroke-width="1.40625" stroke-miterlimit="10" stroke-linecap="round" stroke-linejoin="round"/>
<path d="M14.5135 38.3367H20.7704" stroke="black" stroke-width="1.40625" stroke-miterlimit="10" stroke-linecap="round" stroke-linejoin="round"/>
<path d="M7.00601 13.2473H2.77601C1.99976 13.2473 1.36976 13.8773 1.36976 14.6536V38.3367H6.17164" stroke="black" stroke-width="1.40625" stroke-miterlimit="10" stroke-linecap="round" stroke-linejoin="round"/>
<path d="M30.0428 34.7522H47.9631V31.1682H30.0428V34.7522Z" fill="#F07181"/>
<path d="M45.1511 34.7527H47.9636V31.1686H45.1511V34.7527Z" fill="#EB5569"/>
<path d="M30.0428 34.7522H47.9631V31.1682H30.0428V34.7522Z" stroke="black" stroke-width="1.40625" stroke-miterlimit="10" stroke-linecap="round" stroke-linejoin="round"/>
<path d="M1.37012 34.7522H30.0428V31.1682H1.37012V34.7522Z" fill="#F07181"/>
<path d="M27.2307 34.7527H30.0432V31.1686H27.2307V34.7527Z" fill="#EB5569"/>
<path d="M1.37012 34.7522H30.0428V31.1682H1.37012V34.7522Z" stroke="black" stroke-width="1.40625" stroke-miterlimit="10" stroke-linecap="round" stroke-linejoin="round"/>
<path d="M10.7473 20.416H14.3314V16.8319H17.9154V20.416H21.4995V24H17.9154V27.5841H14.3314V24H10.7473V20.416Z" fill="#F07181"/>
<path d="M10.7473 20.416H14.3314V16.8319H17.9154V20.416H21.4995V24H17.9154V27.5841H14.3314V24H10.7473V20.416Z" stroke="black" stroke-width="1.40625" stroke-miterlimit="10" stroke-linecap="round" stroke-linejoin="round"/>
<path d="M39.7932 25.792H44.3795" stroke="black" stroke-width="1.40625" stroke-miterlimit="10" stroke-linecap="round" stroke-linejoin="round"/>
<path d="M33.6273 16.8314V22.9795C33.6273 24.533 34.8864 25.792 36.4398 25.792H36.7285" stroke="black" stroke-width="1.40625" stroke-miterlimit="10" stroke-linecap="round" stroke-linejoin="round"/>
<path d="M33.6268 16.8319H37.2109V15.0398C37.2109 14.0501 36.4086 13.2479 35.4189 13.2479C34.4292 13.2479 33.6268 14.0501 33.6268 15.0398V16.8319Z" fill="#F07181"/>
<path d="M34.4814 13.5127C34.9942 13.8267 35.3364 14.3939 35.3364 15.0398V16.8314H37.2114V15.0398C37.2114 14.0498 36.4089 13.2473 35.4189 13.2473C35.0748 13.2473 34.7542 13.3439 34.4814 13.5127Z" fill="#EB5569"/>
<path d="M33.6268 16.8319H37.2109V15.0398C37.2109 14.0501 36.4086 13.2479 35.4189 13.2479C34.4292 13.2479 33.6268 14.0501 33.6268 15.0398V16.8319Z" stroke="black" stroke-width="1.40625" stroke-miterlimit="10" stroke-linecap="round" stroke-linejoin="round"/>
<path d="M35.4189 6.07966V9.66373" stroke="black" stroke-width="1.40625" stroke-miterlimit="10" stroke-linecap="round" stroke-linejoin="round"/>
<path d="M30.0428 7.87167L32.5771 10.406" stroke="black" stroke-width="1.40625" stroke-miterlimit="10" stroke-linecap="round" stroke-linejoin="round"/>
<path d="M40.795 7.87167L38.2607 10.406" stroke="black" stroke-width="1.40625" stroke-miterlimit="10" stroke-linecap="round" stroke-linejoin="round"/>
<path d="M6.12404 37.7016C6.12404 40.0316 8.01283 41.9204 10.3428 41.9204C12.6728 41.9204 14.5616 40.0316 14.5616 37.7016C14.5616 35.3717 12.6728 33.4829 10.3428 33.4829C8.01283 33.4829 6.12404 35.3717 6.12404 37.7016Z" fill="#8E9FB6"/>
<path d="M6.12404 37.7016C6.12404 40.0316 8.01283 41.9204 10.3428 41.9204C12.6728 41.9204 14.5616 40.0316 14.5616 37.7016C14.5616 35.3717 12.6728 33.4829 10.3428 33.4829C8.01283 33.4829 6.12404 35.3717 6.12404 37.7016Z" stroke="black" stroke-width="1.40625" stroke-miterlimit="10" stroke-linecap="round" stroke-linejoin="round"/>
<path d="M10.3428 39.2954C11.2216 39.2954 11.9365 38.5805 11.9365 37.7016C11.9365 36.8228 11.2216 36.1079 10.3428 36.1079C9.46396 36.1079 8.74902 36.8228 8.74902 37.7016C8.74902 38.5805 9.46396 39.2954 10.3428 39.2954Z" fill="#EAF6FF"/>
<path d="M10.3428 39.2954C11.2216 39.2954 11.9365 38.5805 11.9365 37.7016C11.9365 36.8228 11.2216 36.1079 10.3428 36.1079C9.46396 36.1079 8.74902 36.8228 8.74902 37.7016C8.74902 38.5805 9.46396 39.2954 10.3428 39.2954Z" stroke="black" stroke-width="1.40625" stroke-miterlimit="10" stroke-linecap="round" stroke-linejoin="round"/>
<path d="M34.7842 37.7016C34.7842 40.0316 36.673 41.9204 39.003 41.9204C41.3329 41.9204 43.2217 40.0316 43.2217 37.7016C43.2217 35.3717 41.3329 33.4829 39.003 33.4829C36.673 33.4829 34.7842 35.3717 34.7842 37.7016Z" fill="#8E9FB6"/>
<path d="M34.7842 37.7016C34.7842 40.0316 36.673 41.9204 39.003 41.9204C41.3329 41.9204 43.2217 40.0316 43.2217 37.7016C43.2217 35.3717 41.3329 33.4829 39.003 33.4829C36.673 33.4829 34.7842 35.3717 34.7842 37.7016Z" stroke="black" stroke-width="1.40625" stroke-miterlimit="10" stroke-linecap="round" stroke-linejoin="round"/>
<path d="M39.0029 39.2954C39.8817 39.2954 40.5966 38.5805 40.5966 37.7016C40.5966 36.8228 39.8817 36.1079 39.0029 36.1079C38.1241 36.1079 37.4091 36.8228 37.4091 37.7016C37.4091 38.5805 38.1241 39.2954 39.0029 39.2954Z" fill="#EAF6FF"/>
<path d="M39.0029 39.2954C39.8817 39.2954 40.5966 38.5805 40.5966 37.7016C40.5966 36.8228 39.8817 36.1079 39.0029 36.1079C38.1241 36.1079 37.4091 36.8228 37.4091 37.7016C37.4091 38.5805 38.1241 39.2954 39.0029 39.2954Z" stroke="black" stroke-width="1.40625" stroke-miterlimit="10" stroke-linecap="round" stroke-linejoin="round"/>
</g>
</g>
<defs>
<clipPath id="clip0_1012_540">
<rect width="48.0001" height="48.0001" fill="white" transform="matrix(-1 0 0 1 48.6667 0)"/>
</clipPath>
</defs>
</svg>
