<svg width="49" height="48" viewBox="0 0 49 48" fill="none" xmlns="http://www.w3.org/2000/svg">
<g clip-path="url(#clip0_1012_610)">
<path d="M36.5726 7.801C38.0684 7.36478 39.1617 5.98431 39.1617 4.34772C39.1616 2.36078 37.5509 0.750061 35.5639 0.750061C33.8583 0.750061 32.431 1.93731 32.0607 3.53022C29.9259 2.23187 27.3341 1.41306 24.3333 1.41306C21.3326 1.41306 18.7408 2.23187 16.6059 3.53022C16.2356 1.93731 14.8083 0.750061 13.1027 0.750061C11.1158 0.750061 9.50508 2.36078 9.50508 4.34772C9.50508 5.9844 10.5984 7.36487 12.0942 7.801C10.5816 9.9864 9.74499 12.4208 9.66249 14.5709C9.43158 20.5893 15.3234 24.4067 24.3333 24.4067C33.3433 24.4067 39.2352 20.5893 39.0043 14.571C38.9218 12.4209 38.0851 9.9864 36.5726 7.801Z" fill="#EDBCA4"/>
<path d="M37.3673 36.5913L37.3731 36.5906V36.5909C38.8659 34.5061 41.1049 33.4353 43.0906 34.0872C45.7408 34.9573 46.9358 38.5666 45.7597 42.1487C44.7583 45.1991 42.3605 47.2446 40.0343 47.248L40.0352 47.2501H24.3333H8.63162L8.63246 47.248C6.30615 47.2446 3.90849 45.199 2.90706 42.1487C1.73106 38.5666 2.92609 34.9573 5.57621 34.0872C7.56184 33.4352 9.80096 34.5061 11.2937 36.5909V36.5906L11.2995 36.5913H37.3673Z" fill="#EDBCA4"/>
<path d="M45.7596 40.4612C44.7582 43.5115 42.3604 45.557 40.0342 45.5604L40.0351 45.5625H24.3333H8.63163L8.63247 45.5604C6.30616 45.557 3.9085 43.5114 2.90706 40.4612C2.69603 39.8184 2.56263 39.175 2.49897 38.5464C2.37813 39.6748 2.5015 40.9132 2.90706 42.1487C3.9085 45.199 6.30625 47.2445 8.63247 47.2479L8.63163 47.2501H24.3333H40.0351L40.0342 47.248C42.3605 47.2446 44.7582 45.199 45.7596 42.1487C46.1652 40.9134 46.2886 39.6749 46.1677 38.5465C46.1042 39.175 45.9707 39.8184 45.7596 40.4612Z" fill="#EAAB92"/>
<path d="M37.164 19.9661C35.6056 18.9137 33.6968 18.3412 31.7036 18.3412C29.8196 18.3412 27.9367 18.855 26.4019 19.7878C25.7446 20.1873 25.1646 20.6507 24.6695 21.1686C24.4864 21.3602 24.18 21.3602 23.9968 21.1686C23.5018 20.6508 22.9218 20.1875 22.2644 19.788C20.7295 18.8552 18.8468 18.3413 16.963 18.3412C14.9695 18.3411 13.0606 18.9135 11.5023 19.9658C13.8884 22.7759 18.4445 24.4067 24.3332 24.4067C30.2218 24.4067 34.7779 22.776 37.164 19.9661Z" fill="#EAAB92"/>
<path d="M24.3333 24.4067C22.3981 18.2312 10.1208 17.2296 8.734 27.3677C7.15656 38.8989 24.3333 47.2501 24.3333 47.2501C24.3333 47.2501 41.5101 38.8989 39.9327 27.3678C38.5458 17.2297 26.2686 18.2312 24.3333 24.4067Z" fill="#DA4A54"/>
<path d="M24.1205 45.4556C22.3003 44.5246 9.39728 37.5997 8.66443 28.0278C7.81018 39.2161 24.3333 47.25 24.3333 47.25C24.3333 47.25 40.8565 39.2161 40.0022 28.0278C39.2694 37.5997 26.3664 44.5246 24.5462 45.4556C24.4124 45.524 24.2543 45.524 24.1205 45.4556Z" fill="#D82E3D"/>
<path d="M13.1895 26.9948C12.294 30.0281 10.5742 32.1936 8.49548 31.5799C6.41676 30.9662 5.53429 28.0324 6.42979 24.9992C7.32529 21.9659 9.65958 19.9817 11.7383 20.5954C13.817 21.2091 14.0849 23.9614 13.1895 26.9948Z" fill="#EDBCA4"/>
<path d="M35.4772 26.9948C36.3727 30.0281 38.0925 32.1936 40.1712 31.5799C42.2499 30.9662 43.1324 28.0324 42.2369 24.9992C41.3414 21.9659 39.0071 19.9817 36.9284 20.5954C34.8496 21.2091 34.5818 23.9614 35.4772 26.9948Z" fill="#EDBCA4"/>
<path d="M13.1895 25.3073C12.294 28.3406 10.5742 30.5061 8.4955 29.8924C7.17231 29.5018 6.33484 28.1705 6.13112 26.4725C5.85653 28.9316 6.75737 31.0668 8.4955 31.5799C10.5742 32.1936 12.294 30.0281 13.1895 26.9948C13.5993 25.6065 13.7645 24.2776 13.6248 23.1852C13.5534 23.8588 13.4057 24.5746 13.1895 25.3073Z" fill="#EAAB92"/>
<path d="M40.1713 29.8924C38.0926 30.5061 36.3728 28.3406 35.4773 25.3073C35.261 24.5746 35.1134 23.8589 35.0419 23.1852C34.9022 24.2777 35.0674 25.6065 35.4773 26.9948C36.3728 30.0281 38.0926 32.1936 40.1713 31.5799C41.9094 31.0668 42.8101 28.9315 42.5356 26.4724C42.3318 28.1705 41.4945 29.5018 40.1713 29.8924Z" fill="#EAAB92"/>
<path d="M8.74106 43.714C9.79323 43.3684 10.1837 41.68 9.61311 39.9427C9.04256 38.2055 7.72707 37.0772 6.6749 37.4228C5.62272 37.7684 5.23229 39.4568 5.80284 41.1941C6.3734 42.9314 7.68888 44.0596 8.74106 43.714Z" fill="#EDF4FA"/>
<path d="M42.8649 41.2065C43.4355 39.4692 43.0451 37.7807 41.9929 37.4352C40.9407 37.0896 39.6252 38.2178 39.0547 39.9551C38.4841 41.6923 38.8745 43.3808 39.9267 43.7264C40.9789 44.0719 42.2944 42.9437 42.8649 41.2065Z" fill="#EDF4FA"/>
<path d="M8.73849 42.0317C7.68624 42.3772 6.37074 41.2487 5.80037 39.5113C5.72387 39.2781 5.66518 39.046 5.62252 38.8178C5.47187 39.4959 5.51884 40.3412 5.80037 41.1988C6.37084 42.9362 7.68624 44.0647 8.73849 43.7192C9.64956 43.4202 10.0641 42.1141 9.78887 40.6412C9.63418 41.3371 9.27137 41.8568 8.73849 42.0317Z" fill="#D8E5EF"/>
<path d="M42.8664 39.5113C42.2959 41.2488 40.9805 42.3772 39.9283 42.0318C39.3953 41.8568 39.0325 41.3371 38.8779 40.6413C38.6026 42.1141 39.0172 43.4202 39.9283 43.7193C40.9805 44.0647 42.296 42.9363 42.8664 41.1988C43.1479 40.3413 43.195 39.4959 43.0442 38.8177C43.0016 39.0461 42.9429 39.2782 42.8664 39.5113Z" fill="#D8E5EF"/>
<path d="M13.3354 5.79086C14.1426 5.6592 14.6901 4.89816 14.5585 4.09103C14.4268 3.2839 13.6658 2.73632 12.8586 2.86798C12.0515 2.99964 11.5039 3.76068 11.6356 4.56781C11.7673 5.37494 12.5283 5.92251 13.3354 5.79086Z" fill="#EDF4FA"/>
<path d="M37.0245 4.56128C37.1562 3.75415 36.6086 2.99311 35.8015 2.86145C34.9943 2.72979 34.2333 3.27737 34.1016 4.0845C33.97 4.89163 34.5175 5.65267 35.3247 5.78433C36.1318 5.91599 36.8928 5.36841 37.0245 4.56128Z" fill="#EDF4FA"/>
<path d="M8.74993 37.3989C8.01062 36.7646 7.16115 36.5405 6.41846 36.7842C5.67624 37.0279 5.12471 37.712 4.90505 38.6612C4.71127 39.4985 4.77868 40.4897 5.09462 41.4522C5.41065 42.4146 5.9439 43.2529 6.59621 43.8124C7.13987 44.2789 7.74315 44.5234 8.31943 44.5234C8.52699 44.5234 8.73108 44.4917 8.92758 44.4272C9.6699 44.1835 10.2214 43.4994 10.4411 42.5502C10.6349 41.7129 10.5675 40.7217 10.2515 39.7592C9.93549 38.7968 9.40224 37.9585 8.74993 37.3989ZM9.0683 42.2327C8.96246 42.6903 8.75096 43.0022 8.48808 43.0885C8.2253 43.1746 7.87008 43.0489 7.51365 42.7431C7.06046 42.3544 6.6668 41.7238 6.43346 41.0128C6.20002 40.3018 6.1433 39.5604 6.27793 38.9789C6.38377 38.5213 6.59527 38.2093 6.85815 38.123C6.91243 38.1052 6.97065 38.0964 7.03205 38.0964C7.26774 38.0964 7.54974 38.2258 7.83258 38.4684C8.28577 38.8571 8.67943 39.4878 8.91277 40.1988C9.14621 40.9097 9.20293 41.651 9.0683 42.2327Z" fill="black"/>
<path d="M42.2483 36.7843C41.5059 36.5405 40.6563 36.7647 39.9168 37.399C39.2644 37.9586 38.7312 38.7968 38.4152 39.7593C38.0991 40.7219 38.0318 41.7131 38.2255 42.5504C38.4451 43.4996 38.9967 44.1837 39.7389 44.4273C39.9355 44.4919 40.1396 44.5236 40.3472 44.5236C40.9234 44.5236 41.5267 44.279 42.0704 43.8126C42.7227 43.253 43.2559 42.4148 43.572 41.4524C44.2756 39.3093 43.6941 37.2589 42.2483 36.7843ZM42.2332 41.0128C41.9999 41.7238 41.6061 42.3544 41.153 42.7431C40.7967 43.0489 40.4415 43.1748 40.1785 43.0885C39.9157 43.0023 39.7042 42.6903 39.5984 42.2327C39.4638 41.651 39.5205 40.9098 39.7539 40.1988C39.7539 40.1987 39.7539 40.1987 39.7539 40.1987C39.9873 39.4877 40.381 38.857 40.8341 38.4683C41.117 38.2256 41.3989 38.0963 41.6347 38.0963C41.6961 38.0963 41.7543 38.105 41.8086 38.1229C42.394 38.3151 42.6998 39.5917 42.2332 41.0128Z" fill="black"/>
<path d="M46.5708 36.9051C45.9937 35.1621 44.8488 33.9306 43.3471 33.4376C42.1962 33.0598 40.9586 33.1665 39.7925 33.6881C39.9792 33.2274 40.139 32.7659 40.2725 32.3039C40.3156 32.2929 40.3586 32.2832 40.4017 32.2704C41.6377 31.9056 42.5703 30.8917 43.0277 29.4155C43.4511 28.049 43.4226 26.4105 42.9478 24.8016C42.4728 23.1928 41.6068 21.8015 40.5091 20.8841C39.7761 20.2715 38.9868 19.9067 38.1989 19.8028C39.2844 18.2727 39.8121 16.4824 39.737 14.5261C39.7333 14.4262 39.7278 14.3257 39.7211 14.2247C39.6948 13.8365 39.3599 13.5427 38.9708 13.5692C38.5826 13.5953 38.2891 13.9311 38.3152 14.3193C38.3211 14.4063 38.3258 14.4928 38.3291 14.5794C38.4122 16.7456 37.656 18.6033 36.0798 20.1088C33.7975 18.8811 30.8753 18.6939 28.3194 19.6378C26.5793 20.2803 25.1897 21.375 24.3334 22.7425C23.4773 21.3751 22.0876 20.2803 20.3475 19.6378C17.7915 18.694 14.8695 18.8811 12.5871 20.1088C11.0109 18.6032 10.2546 16.7455 10.3378 14.5794C10.417 12.5144 11.2596 10.1783 12.6495 8.17019C12.9253 7.79406 12.7185 7.21112 12.2674 7.0929C11.0388 6.73459 10.1807 5.5899 10.1807 4.30919C10.1807 2.71 11.4817 1.40903 13.0808 1.40903C14.4367 1.40903 15.5979 2.3304 15.9047 3.64965C15.9976 4.10556 16.566 4.34462 16.9569 4.09206C19.1594 2.75256 21.6412 2.07334 24.3333 2.07334C27.0255 2.07334 29.5073 2.75256 31.7098 4.09206C32.1008 4.34472 32.6691 4.10556 32.762 3.64965C33.0688 2.3304 34.2301 1.40903 35.5859 1.40903C37.1851 1.40903 38.486 2.71009 38.486 4.30919C38.486 5.5899 37.6278 6.73459 36.3993 7.0929C35.9481 7.21112 35.7414 7.79416 36.0172 8.17019C36.7956 9.295 37.394 10.4914 37.7958 11.7263C37.9162 12.0963 38.314 12.2987 38.6838 12.1783C39.0537 12.0579 39.2561 11.6604 39.1357 11.2904C38.7771 10.188 38.278 9.11528 37.6483 8.09153C39.0055 7.34715 39.8952 5.89862 39.8952 4.30919C39.8951 1.93319 37.9621 6.10352e-05 35.5859 6.10352e-05C33.8849 6.10352e-05 32.3902 0.976092 31.6915 2.46015C29.4576 1.26794 26.9868 0.664374 24.3333 0.664374C21.6799 0.664374 19.209 1.26794 16.9752 2.46015C16.2765 0.976092 14.7817 6.10352e-05 13.0808 6.10352e-05C10.7047 6.10352e-05 8.7716 1.93319 8.7716 4.30928C8.7716 5.89881 9.66128 7.34725 11.0186 8.09162C9.74697 10.1584 9.01075 12.4145 8.92985 14.5255C8.85466 16.4843 9.38275 18.2766 10.4705 19.8078C9.2486 19.9729 8.02619 20.7591 7.06825 22.0501C6.83631 22.3625 6.90166 22.8037 7.21413 23.0357C7.5266 23.2675 7.96788 23.2022 8.19972 22.8897C9.17744 21.5723 10.4479 20.9499 11.5142 21.2645C13.2878 21.7882 13.1494 24.5744 12.4921 26.8012C12.0645 28.2495 11.4458 29.4504 10.75 30.1828C10.0749 30.8933 9.39297 31.1341 8.66406 30.9192C7.89485 30.692 7.2985 30.01 6.98519 28.9986C6.6431 27.8947 6.67338 26.5458 7.0706 25.2006C7.18075 24.8275 6.96747 24.4356 6.59444 24.3255C6.22103 24.2149 5.82944 24.4285 5.71919 24.8016C5.24425 26.4105 5.21585 28.049 5.63931 29.4155C6.09672 30.8916 7.02925 31.9055 8.26516 32.2704C8.30828 32.2832 8.35122 32.2929 8.39416 32.3038C8.52757 32.7661 8.68675 33.2273 8.87238 33.6872C7.70697 33.1664 6.47022 33.06 5.31991 33.4375C3.81803 33.9305 2.67316 35.162 2.09603 36.905C1.54385 38.5728 1.57919 40.5257 2.19588 42.4039C3.268 45.6693 5.87107 47.9599 8.54144 47.9975C8.56113 47.9992 8.5811 48.0001 8.60107 48.0001H40.066C40.0859 48.0001 40.1058 47.9992 40.1253 47.9975C42.7958 47.9603 45.399 45.6695 46.4712 42.4039C47.0876 40.5257 47.123 38.5728 46.5708 36.9051ZM41.5963 25.2006C41.9935 26.5458 42.0238 27.8946 41.6817 28.9986C41.3684 30.01 40.7721 30.692 40.0027 30.9192C39.2744 31.1343 38.5918 30.8933 37.9169 30.1828C37.221 29.4504 36.6023 28.2495 36.1748 26.8012C35.5173 24.5744 35.3791 21.7881 37.1527 21.2645C37.3383 21.2097 37.5301 21.1826 37.7253 21.1826C38.3391 21.1826 38.9892 21.4502 39.6055 21.9653C40.4921 22.7064 41.1992 23.8554 41.5963 25.2006ZM8.60275 46.589C6.54475 46.586 4.41316 44.6411 3.53435 41.9645C2.4791 38.7501 3.47706 35.5255 5.75922 34.7763C7.3781 34.2448 9.29266 35.1052 10.6533 36.9687C12.1789 39.2001 14.3285 41.3919 17.089 43.5239C18.7619 44.8159 20.3607 45.8501 21.6013 46.5911H8.65572C8.63819 46.5898 8.62056 46.589 8.60275 46.589ZM45.1323 41.9644C44.2534 44.641 42.1218 46.5859 40.0638 46.5889C40.0461 46.589 40.0286 46.5897 40.0111 46.591H27.0648C28.2604 45.8768 29.7884 44.8908 31.3961 43.6631C31.7053 43.4269 31.7645 42.9848 31.5285 42.6756C31.2923 42.3664 30.8502 42.307 30.541 42.5433C27.7794 44.6521 25.2018 46.0542 24.3339 46.505C22.4388 45.517 12.3814 39.968 9.87457 32.3235C10.5442 32.1634 11.1843 31.7711 11.7714 31.1533C12.6303 30.2492 13.3467 28.8823 13.8434 27.2001C14.6122 24.5957 14.5097 22.4676 13.629 21.1626C15.5014 20.2928 17.8132 20.2041 19.8594 20.9597C21.7676 21.6644 23.1533 22.9979 23.6611 24.6182C23.7531 24.9122 24.0255 25.1121 24.3333 25.1121C24.6412 25.1121 24.9136 24.9122 25.0056 24.6182C25.5134 22.9979 26.8991 21.6644 28.8073 20.9597C30.8535 20.2042 33.1653 20.2928 35.0377 21.1626C34.157 22.4676 34.0545 24.5957 34.8233 27.2001C35.3199 28.8823 36.0363 30.2492 36.8953 31.1533C37.4825 31.7713 38.1227 32.1636 38.7925 32.3237C38.3703 33.6144 37.715 34.9067 36.8305 36.1942C36.8234 36.2038 36.8167 36.2135 36.8101 36.2235C35.7544 37.754 34.3758 39.2778 32.6801 40.7845C32.3892 41.0429 32.3629 41.4882 32.6214 41.7791C32.7605 41.9357 32.954 42.0156 33.1483 42.0156C33.3147 42.0156 33.4818 41.957 33.6159 41.8378C35.3828 40.2679 36.8279 38.6703 37.9461 37.0558C37.9544 37.0456 37.9636 37.0364 37.9713 37.0256C39.3342 35.1223 41.2716 34.2392 42.9074 34.7762C45.1895 35.5254 46.1876 38.7501 45.1323 41.9644Z" fill="black"/>
<path d="M17.3026 11.0105V12.0066C17.3026 12.3957 17.6179 12.7112 18.0071 12.7112C18.3963 12.7112 18.7116 12.3958 18.7116 12.0066V11.0105C18.7116 10.6215 18.3963 10.306 18.0071 10.306C17.6179 10.306 17.3026 10.6215 17.3026 11.0105Z" fill="black"/>
<path d="M29.9552 11.0105V12.0066C29.9552 12.3957 30.2705 12.7112 30.6597 12.7112C31.0488 12.7112 31.3642 12.3958 31.3642 12.0066V11.0105C31.3642 10.6215 31.0488 10.306 30.6597 10.306C30.2705 10.306 29.9552 10.6215 29.9552 11.0105Z" fill="black"/>
<path d="M24.3333 15.5946C24.7225 15.5946 25.0379 15.2792 25.0379 14.8901V12.6535C25.8803 12.5076 26.3953 12.0906 26.3953 11.5085C26.3953 10.778 25.5859 10.306 24.3333 10.306C23.0808 10.306 22.2714 10.778 22.2714 11.5085C22.2714 12.0906 22.7864 12.5076 23.6288 12.6535V14.8901C23.6288 15.2792 23.9442 15.5946 24.3333 15.5946Z" fill="black"/>
</g>
<defs>
<clipPath id="clip0_1012_610">
<rect width="48" height="48" fill="white" transform="translate(0.333344 6.10352e-05)"/>
</clipPath>
</defs>
</svg>
