<svg width="49" height="48" viewBox="0 0 49 48" fill="none" xmlns="http://www.w3.org/2000/svg">
<g clip-path="url(#clip0_1012_638)">
<path d="M39.2498 9.03006L35.3735 8.46681C35.0176 8.41506 34.7099 8.19156 34.5507 7.86897L32.7517 4.22387C32.3508 3.41162 31.1926 3.41162 30.7917 4.22387L28.9927 7.86897C28.8335 8.19147 28.5258 8.41506 28.1699 8.46681L24.1473 9.05134C23.251 9.18156 22.8931 10.2831 23.5417 10.9154L26.4525 13.7526C26.71 14.0037 26.8276 14.3655 26.7667 14.7199L26.1046 18.5804L32.5697 17.4247L36.044 18.3777L36.0838 13.2358L39.2498 9.03006Z" fill="#60B7FF"/>
<path d="M39.3962 9.05134L39.2498 9.03006L35.7823 12.41C35.0826 13.0921 34.7636 14.0741 34.9288 15.0369L35.1874 16.5452C35.2531 16.9282 34.8512 17.2202 34.5073 17.0394L33.1528 16.3273C32.7288 16.1042 32.2512 15.9863 31.7718 15.9863C31.2926 15.9863 30.815 16.1042 30.3908 16.3273L26.1047 18.5805L26.0797 18.7263C25.9266 19.6191 26.8637 20.2999 27.6654 19.8784L31.2633 17.9869C31.5817 17.8196 31.9621 17.8196 32.2804 17.9869L35.8784 19.8784C36.6801 20.2999 37.6172 19.6191 37.4641 18.7263L36.7769 14.72C36.7161 14.3656 36.8336 14.0038 37.0912 13.7527L40.002 10.9155C40.6504 10.2832 40.2926 9.18165 39.3962 9.05134Z" fill="#26A6FE"/>
<path d="M36.4321 3.11941C37.1333 3.63334 37.7528 4.25284 38.2678 4.95409C38.3821 5.10972 38.6162 5.10972 38.7305 4.95409C39.2455 4.25284 39.8651 3.63344 40.5663 3.11941C40.7221 3.00513 40.7223 2.77094 40.5665 2.65656C39.8652 2.1415 39.2455 1.52181 38.7305 0.820469C38.6162 0.664844 38.3821 0.664844 38.2677 0.820469C37.7526 1.52181 37.133 2.14141 36.4317 2.65656C36.2761 2.77094 36.2762 3.00522 36.4321 3.11941Z" fill="#FFE177"/>
<path d="M40.8391 17.0281C41.7741 17.7134 42.6001 18.5393 43.2869 19.4743C43.4393 19.6818 43.7514 19.6818 43.9038 19.4743C44.5906 18.5393 45.4166 17.7134 46.3516 17.0281C46.5594 16.8757 46.5595 16.5634 46.3518 16.4109C45.4168 15.7241 44.5906 14.8979 43.9038 13.9628C43.7514 13.7553 43.4393 13.7553 43.2869 13.9628C42.6001 14.8979 41.7739 15.7241 40.8389 16.4109C40.6312 16.5634 40.6314 16.8758 40.8391 17.0281Z" fill="#FFE177"/>
<path d="M18.9584 16.2234C19.6597 16.7375 20.2794 17.3571 20.7946 18.0586C20.9089 18.2143 21.143 18.2143 21.2574 18.0586C21.7726 17.3571 22.3923 16.7375 23.0936 16.2234C23.2495 16.1091 23.2496 15.8748 23.0938 15.7604C22.3924 15.2451 21.7726 14.6253 21.2573 13.9238C21.1429 13.7681 20.9089 13.7681 20.7945 13.9238C20.2793 14.6253 19.6595 15.2451 18.958 15.7604C18.8024 15.8748 18.8025 16.1091 18.9584 16.2234Z" fill="#FFE177"/>
<path d="M29.2346 35.9551L40.5858 28.5762L40.3017 28.084C39.6544 26.963 38.2211 26.5789 37.1 27.2261L27.5706 32.7279L29.2346 35.9551Z" fill="#FFB09E"/>
<path d="M33.403 35.6479L45.1552 30.666L44.2799 29.1497C43.6326 28.0288 42.1993 27.6447 41.0782 28.2918L30.4744 34.414L33.403 35.6479Z" fill="#FFCEBF"/>
<path d="M45.2688 30.6563C45.1142 30.6657 44.9582 30.6906 44.8026 30.7323L31.4685 34.3053C30.3362 34.6088 29.1279 34.285 28.299 33.4561L23.2108 28.3679H27.8685C28.4713 28.3679 29.0178 28.1232 29.4135 27.7285C29.8147 27.3263 30.0609 26.7693 30.0527 26.1536C30.0365 24.9508 29.0222 23.9991 27.8193 23.9991H18.6867C16.2003 23.9991 13.8157 24.9869 12.0575 26.745L1.50709 37.2957C1.41916 37.3836 1.36975 37.5028 1.36975 37.6272V45.4211L7.03234 46.2778L14.8412 36.4308L19.5968 35.5282L30.1676 38.2704L47.2014 33.466L45.2688 30.6563Z" fill="#FFDFCF"/>
<path d="M47.9314 33.3538L47.6732 32.3899C47.3801 31.2955 46.3581 30.5901 45.2688 30.6564L45.7565 32.4808C45.8234 32.7308 45.675 32.9877 45.425 33.0546L29.9462 37.2024C29.8275 37.2342 29.705 37.2503 29.5821 37.2503C29.4593 37.2503 29.3369 37.2342 29.2182 37.2024L20.0006 34.7325C19.4463 34.584 18.8748 34.5086 18.3021 34.5086C16.2757 34.5086 14.3294 35.4685 13.0956 37.0763L6.83303 45.2379C6.74435 45.3535 6.60681 45.4213 6.46113 45.4213L1.36975 45.4211V46.8274C1.36975 47.0862 1.57956 47.2961 1.8385 47.2961L7.38588 47.2964C7.53166 47.2964 7.6691 47.2286 7.75778 47.113L14.5833 38.2178C15.7375 36.7137 17.6841 36.0529 19.5154 36.5436L28.7329 39.0135C29.2893 39.1625 29.8751 39.1625 30.4315 39.0135L47.2683 34.5018C47.7685 34.3678 48.0653 33.8539 47.9314 33.3538Z" fill="#FFCEBF"/>
<path d="M32.2803 17.9868L35.8783 19.8783C36.68 20.2998 37.6171 19.619 37.464 18.7262L36.7769 14.7199C36.716 14.3655 36.8336 14.0037 37.0912 13.7526L40.002 10.9154C40.6506 10.2831 40.2927 9.18156 39.3963 9.05134L35.3738 8.46681C35.0178 8.41506 34.7102 8.19156 34.551 7.86897L32.752 4.22387C32.3511 3.41162 31.1928 3.41162 30.7921 4.22387L28.9931 7.86897C28.8339 8.19147 28.5262 8.41506 28.1702 8.46681L24.1477 9.05134C23.2514 9.18156 22.8934 10.2831 23.5421 10.9154L26.4528 13.7526C26.7104 14.0037 26.8279 14.3655 26.7672 14.7199L26.0801 18.7262C25.927 19.619 26.864 20.2998 27.6658 19.8783L31.2637 17.9868C31.5816 17.8195 31.962 17.8195 32.2803 17.9868Z" stroke="black" stroke-width="1.40625" stroke-miterlimit="10" stroke-linecap="round" stroke-linejoin="round"/>
<path d="M36.4321 3.11941C37.1333 3.63334 37.7528 4.25284 38.2678 4.95409C38.3821 5.10972 38.6162 5.10972 38.7305 4.95409C39.2455 4.25284 39.8651 3.63344 40.5663 3.11941C40.7221 3.00513 40.7223 2.77094 40.5665 2.65656C39.8652 2.1415 39.2455 1.52181 38.7305 0.820469C38.6162 0.664844 38.3821 0.664844 38.2677 0.820469C37.7526 1.52181 37.133 2.14141 36.4317 2.65656C36.2761 2.77094 36.2762 3.00522 36.4321 3.11941Z" stroke="black" stroke-width="1.40625" stroke-miterlimit="10" stroke-linecap="round" stroke-linejoin="round"/>
<path d="M40.8391 17.0281C41.7741 17.7134 42.6001 18.5393 43.2869 19.4743C43.4393 19.6818 43.7514 19.6818 43.9038 19.4743C44.5906 18.5393 45.4166 17.7134 46.3516 17.0281C46.5594 16.8757 46.5595 16.5634 46.3518 16.4109C45.4168 15.7241 44.5906 14.8979 43.9038 13.9628C43.7514 13.7553 43.4393 13.7553 43.2869 13.9628C42.6001 14.8979 41.7739 15.7241 40.8389 16.4109C40.6312 16.5634 40.6314 16.8758 40.8391 17.0281Z" stroke="black" stroke-width="1.40625" stroke-miterlimit="10" stroke-linecap="round" stroke-linejoin="round"/>
<path d="M18.9584 16.2234C19.6597 16.7375 20.2794 17.3571 20.7946 18.0586C20.9089 18.2143 21.143 18.2143 21.2574 18.0586C21.7726 17.3571 22.3923 16.7375 23.0936 16.2234C23.2495 16.1091 23.2496 15.8748 23.0938 15.7604C22.3924 15.2451 21.7726 14.6253 21.2573 13.9238C21.1429 13.7681 20.9089 13.7681 20.7945 13.9238C20.2793 14.6253 19.6595 15.2451 18.958 15.7604C18.8024 15.8748 18.8025 16.1091 18.9584 16.2234Z" stroke="black" stroke-width="1.40625" stroke-miterlimit="10" stroke-linecap="round" stroke-linejoin="round"/>
<path d="M23.2108 28.368H20.539" stroke="black" stroke-width="1.40625" stroke-miterlimit="10" stroke-linecap="round" stroke-linejoin="round"/>
<path d="M20.6538 23.9992H18.6868C16.2003 23.9992 13.8158 24.987 12.0576 26.7451L1.507 37.2957C1.41906 37.3836 1.36975 37.5028 1.36975 37.6272V46.8274C1.36975 47.0863 1.57956 47.2962 1.8385 47.2962L7.38588 47.2965C7.53166 47.2965 7.66909 47.2287 7.75778 47.1131L14.5833 38.2179C15.7375 36.7138 17.6841 36.053 19.5154 36.5437L28.7329 39.0136C29.2893 39.1626 29.8751 39.1626 30.4315 39.0136L47.2683 34.5019C47.7684 34.368 48.0652 33.8539 47.9313 33.3539L47.6732 32.3899C47.3385 31.1402 46.0532 30.3977 44.8025 30.7324L31.4684 34.3055C30.3361 34.609 29.1278 34.2852 28.2989 33.4562L23.2107 28.3681H27.8684C28.4712 28.3681 29.0177 28.1234 29.4134 27.7287C29.8146 27.3265 30.0608 26.7694 30.0526 26.1538C30.0364 24.951 29.0221 23.9993 27.8192 23.9993H23.9348" stroke="black" stroke-width="1.40625" stroke-miterlimit="10" stroke-linecap="round" stroke-linejoin="round"/>
<path d="M30.6978 30.9225L27.6547 32.6793" stroke="black" stroke-width="1.40625" stroke-miterlimit="10" stroke-linecap="round" stroke-linejoin="round"/>
<path d="M40.5391 28.4949L40.3018 28.0839C39.6545 26.9629 38.2212 26.5788 37.1001 27.226L33.6533 29.216" stroke="black" stroke-width="1.40625" stroke-miterlimit="10" stroke-linecap="round" stroke-linejoin="round"/>
<path d="M45.1042 30.5777L44.2798 29.1497C43.6325 28.0288 42.1992 27.6447 41.0781 28.2918L30.6312 34.3233" stroke="black" stroke-width="1.40625" stroke-miterlimit="10" stroke-linecap="round" stroke-linejoin="round"/>
</g>
<defs>
<clipPath id="clip0_1012_638">
<rect width="48" height="48" fill="white" transform="translate(0.666626 6.10352e-05)"/>
</clipPath>
</defs>
</svg>
