<svg width="32" height="32" viewBox="0 0 32 32" fill="none" xmlns="http://www.w3.org/2000/svg">
<path d="M25.5996 29.3335V25.5336C25.5996 21.9509 25.5996 20.1596 24.4866 19.0466C23.3736 17.9336 21.5823 17.9336 17.9996 17.9336L15.4663 20.4669L12.933 17.9336C9.35031 17.9336 7.55899 17.9336 6.446 19.0466C5.33301 20.1596 5.33301 21.9509 5.33301 25.5336V29.3335" stroke="#3B61B9" stroke-width="2" stroke-linecap="round" stroke-linejoin="round"/>
<path d="M19.8998 9.69997V8.43331C19.8998 5.98486 17.915 4 15.4665 4C13.0181 4 11.0332 5.98486 11.0332 8.43331V9.69997C11.0332 12.1484 13.0181 14.1333 15.4665 14.1333C17.915 14.1333 19.8998 12.1484 19.8998 9.69997Z" stroke="#3B61B9" stroke-width="2" stroke-linecap="round" stroke-linejoin="round"/>
<path d="M20.5328 21.7334V25.5334M22.4328 23.6334L18.6328 23.6334" stroke="#3B61B9" stroke-width="2" stroke-linecap="round" stroke-linejoin="round"/>
</svg>
