<svg width="32" height="32" viewBox="0 0 32 32" fill="none" xmlns="http://www.w3.org/2000/svg">
<path d="M7.33341 20.667C4.38401 19.4891 2.66675 16.5775 2.66675 13.5665C2.66675 9.66127 5.75606 5.80213 7.92443 3.5744C9.10207 2.36452 10.8981 2.36452 12.0757 3.5744C12.7317 4.24836 13.2865 5.07163 14.0001 6.00033" stroke="#3B61B9" stroke-width="2" stroke-linecap="round"/>
<path d="M10.6667 19.9021C10.6667 15.16 14.5986 10.4739 17.3583 7.76884C18.8572 6.29971 21.143 6.29971 22.6418 7.76884C25.4016 10.4739 29.3334 15.16 29.3334 19.9021C29.3334 24.5515 25.7991 29.3337 20.0001 29.3337C14.2011 29.3337 10.6667 24.5515 10.6667 19.9021Z" stroke="#3B61B9" stroke-width="2"/>
<path d="M24.6667 20.667C24.6667 23.6125 22.6667 24.667 20.6667 24.667" stroke="#3B61B9" stroke-width="2" stroke-linecap="round" stroke-linejoin="round"/>
</svg>
