<?xml version="1.0" encoding="UTF-8"?>
<!DOCTYPE svg PUBLIC "-//W3C//DTD SVG 1.1//EN" "http://www.w3.org/Graphics/SVG/1.1/DTD/svg11.dtd">
<!-- Creator: CorelDRAW -->
<svg xmlns="http://www.w3.org/2000/svg" xml:space="preserve" width="19.3265mm" height="19.3252mm" version="1.1" style="shape-rendering:geometricPrecision; text-rendering:geometricPrecision; image-rendering:optimizeQuality; fill-rule:evenodd; clip-rule:evenodd"
viewBox="0 0 36.97 36.97"
 xmlns:xlink="http://www.w3.org/1999/xlink"
 xmlns:xodm="http://www.corel.com/coreldraw/odm/2003">
 <defs>
  <style type="text/css">
   <![CDATA[
    .fil0 {fill:#F8FAFF}
    .fil1 {fill:#3B61B9;fill-rule:nonzero}
   ]]>
  </style>
 </defs>
 <g id="Слой_x0020_1">
  <metadata id="CorelCorpID_0Corel-Layer"/>
  <rect class="fil0" x="-0" y="-0" width="36.97" height="36.97"/>
  <g id="_105553484113376">
   <path class="fil1" d="M12.06 8.86l12.85 0c0.36,0 0.65,0.29 0.65,0.65l0 17.96c0,0.36 -0.29,0.65 -0.65,0.65l-12.85 0c-0.36,0 -0.65,-0.29 -0.65,-0.65l0 -17.96c0,-0.36 0.29,-0.65 0.65,-0.65zm12.2 1.3l-11.55 0 0 16.66 11.55 0 0 -16.66z"/>
   <path class="fil1" d="M13.91 20.94c-0.36,0 -0.65,-0.29 -0.65,-0.65 0,-0.36 0.29,-0.65 0.65,-0.65l4.7 0c0.36,0 0.65,0.29 0.65,0.65 0,0.36 -0.29,0.65 -0.65,0.65l-4.7 0z"/>
   <path class="fil1" d="M13.91 17.36c-0.36,0 -0.65,-0.29 -0.65,-0.65 0,-0.36 0.29,-0.65 0.65,-0.65l9.14 0c0.36,0 0.65,0.29 0.65,0.65 0,0.36 -0.29,0.65 -0.65,0.65l-9.14 0z"/>
   <path class="fil1" d="M13.91 14.04c-0.36,0 -0.65,-0.29 -0.65,-0.65 0,-0.36 0.29,-0.65 0.65,-0.65l9.14 0c0.36,0 0.65,0.29 0.65,0.65 0,0.36 -0.29,0.65 -0.65,0.65l-9.14 0z"/>
   <path class="fil1" d="M18.28 23.38c-0.22,-0.28 -0.18,-0.68 0.09,-0.91 0.28,-0.22 0.68,-0.18 0.91,0.09l1.05 1.3 2.29 -3.78c0.18,-0.3 0.58,-0.4 0.89,-0.22 0.3,0.18 0.4,0.58 0.22,0.89l-2.75 4.53c-0.04,0.07 -0.09,0.14 -0.16,0.2 -0.28,0.22 -0.68,0.18 -0.91,-0.09l-1.63 -2.01z"/>
  </g>
 </g>
</svg>
