<?xml version="1.0" encoding="UTF-8"?>
<!DOCTYPE svg PUBLIC "-//W3C//DTD SVG 1.1//EN" "http://www.w3.org/Graphics/SVG/1.1/DTD/svg11.dtd">
<!-- Creator: CorelDRAW -->
<svg xmlns="http://www.w3.org/2000/svg" xml:space="preserve" width="20.1507mm" height="20.1498mm" version="1.1" style="shape-rendering:geometricPrecision; text-rendering:geometricPrecision; image-rendering:optimizeQuality; fill-rule:evenodd; clip-rule:evenodd"
viewBox="0 0 44.82 44.81"
 xmlns:xlink="http://www.w3.org/1999/xlink"
 xmlns:xodm="http://www.corel.com/coreldraw/odm/2003">
 <defs>
  <style type="text/css">
   <![CDATA[
    .fil0 {fill:#F8FAFF}
    .fil1 {fill:#3B61B9;fill-rule:nonzero}
   ]]>
  </style>
 </defs>
 <g id="Слой_x0020_1">
  <metadata id="CorelCorpID_0Corel-Layer"/>
  <rect class="fil0" x="-0" y="-0" width="44.82" height="44.81"/>
  <g id="_105553227281248">
   <g>
    <g>
     <path class="fil1" d="M12.67 21c-0.37,0.24 -0.87,0.14 -1.11,-0.23 -0.24,-0.37 -0.14,-0.87 0.23,-1.11l0.88 1.34zm10.18 -6.71l-10.18 6.71 -0.88 -1.34 10.18 -6.71 0.88 0 0 1.34zm-0.88 -1.34c0.37,-0.24 0.87,-0.14 1.11,0.23 0.24,0.37 0.14,0.87 -0.23,1.11l-0.88 -1.34zm10.18 8.04l-10.18 -6.71 0.88 -1.34 10.18 6.71 -0.88 1.34zm0.88 -1.34c0.37,0.24 0.47,0.74 0.23,1.11 -0.24,0.37 -0.74,0.47 -1.11,0.23l0.88 -1.34z"/>
    </g>
    <g>
     <path class="fil1" d="M29.7 19.19c0,-0.44 0.36,-0.8 0.8,-0.8 0.44,0 0.8,0.36 0.8,0.8l-1.6 0zm0 11.53l0 -11.53 1.6 0 0 11.53 0 0 -1.6 0zm1.6 0c0,0.44 -0.36,0.8 -0.8,0.8 -0.44,0 -0.8,-0.36 -0.8,-0.8l1.6 0zm-1.27 1.27l0 -1.6 0 0 -0.02 0 -0.01 0 -0.02 0 -0.02 0 -0.02 0 -0.02 0.01 -0.02 0.01 -0.01 0.01 -0.01 0.01 -0.01 0.01 -0.01 0.01 -0.02 0.01 -0.01 0.01 -0.01 0.01 -0.01 0.01 -0.01 0.01 -0.01 0.01 -0.01 0.01 -0.01 0.01 -0.01 0.01 -0.01 0.02 -0.01 0.01 -0.01 0.01 -0.01 0.02 -0.01 0.02 -0 0.01 -0 0.02 -0 0.02 -0 0.02 -0 0.02 -0 0.01 -0 0.02 1.6 0 -0 0.07 -0 0.06 -0.01 0.07 -0.01 0.06 -0.01 0.06 -0.02 0.06 -0.02 0.06 -0.02 0.06 -0.03 0.06 -0.03 0.05 -0.03 0.05 -0.04 0.05 -0.04 0.05 -0.03 0.04 -0.04 0.05 -0.04 0.05 -0.04 0.04 -0.05 0.04 -0.05 0.04 -0.05 0.03 -0.05 0.04 -0.05 0.03 -0.05 0.03 -0.06 0.03 -0.06 0.02 -0.06 0.02 -0.06 0.02 -0.06 0.01 -0.06 0.01 -0.07 0.01 -0.06 0 -0.06 0 0 0zm0 0c-0.44,0 -0.8,-0.36 -0.8,-0.8 0,-0.44 0.36,-0.8 0.8,-0.8l0 1.6zm-15.24 -1.6l15.24 0 0 1.6 -15.24 0 0 0 0 -1.6zm0 1.6c-0.44,0 -0.8,-0.36 -0.8,-0.8 0,-0.44 0.36,-0.8 0.8,-0.8l0 1.6zm-1.27 -1.27l1.6 0 0 0 -0 -0.02 -0 -0.01 -0 -0.02 -0 -0.02 -0 -0.02 -0.01 -0.02 -0 -0.01 -0.01 -0.02 -0.01 -0.01 -0.01 -0.01 -0.01 -0.01 -0.01 -0.02 -0.01 -0.01 -0.01 -0.01 -0.01 -0.01 -0.01 -0.01 -0.01 -0.01 -0.01 -0.01 -0.01 -0.01 -0.01 -0.01 -0.01 -0.01 -0.01 -0.01 -0.01 -0.01 -0.01 -0.01 -0.02 -0.01 -0.01 -0 -0.02 -0.01 -0.02 -0 -0.02 -0 -0.02 -0 -0.01 -0 -0.02 -0 0 1.6 -0.06 -0 -0.06 -0 -0.07 -0.01 -0.06 -0.01 -0.06 -0.01 -0.06 -0.02 -0.06 -0.02 -0.06 -0.02 -0.06 -0.03 -0.05 -0.03 -0.05 -0.03 -0.05 -0.03 -0.05 -0.03 -0.05 -0.04 -0.05 -0.04 -0.04 -0.04 -0.04 -0.04 -0.04 -0.05 -0.04 -0.05 -0.03 -0.05 -0.04 -0.05 -0.03 -0.05 -0.03 -0.05 -0.03 -0.06 -0.02 -0.06 -0.02 -0.06 -0.02 -0.06 -0.01 -0.06 -0.01 -0.06 -0.01 -0.07 -0 -0.06 -0 -0.07 0 0zm0 0c0,-0.44 0.36,-0.8 0.8,-0.8 0.44,0 0.8,0.36 0.8,0.8l-1.6 0zm1.6 -11.53l0 11.53 -1.6 0 0 -11.53 1.6 0zm-1.6 0c0,-0.44 0.36,-0.8 0.8,-0.8 0.44,0 0.8,0.36 0.8,0.8l-1.6 0z"/>
    </g>
    <g>
     <path class="fil1" d="M24.79 31.98l-4.76 0 0 -1.59 4.76 0 0.8 0.8 -0.8 0.8zm0 -1.59c0.44,0 0.8,0.36 0.8,0.8 0,0.44 -0.36,0.8 -0.8,0.8l0 -1.59zm0.8 -5.78l0 6.57 -1.6 0 0 -6.57 0.8 -0.8 0.8 0.8zm-1.6 0c0,-0.44 0.36,-0.8 0.8,-0.8 0.44,0 0.8,0.36 0.8,0.8l-1.6 0zm-3.96 -0.8l4.76 0 0 1.59 -4.76 0 -0.8 -0.8 0.8 -0.8zm0 1.59c-0.44,0 -0.8,-0.36 -0.8,-0.8 0,-0.44 0.36,-0.8 0.8,-0.8l0 1.59zm-0.8 5.78l0 -6.57 1.6 0 0 6.57 -0.8 0.8 -0.8 -0.8zm1.6 0c0,0.44 -0.36,0.8 -0.8,0.8 -0.44,0 -0.8,-0.36 -0.8,-0.8l1.6 0z"/>
    </g>
    <g>
     <path class="fil1" d="M21.61 24.64c0,-0.44 0.36,-0.8 0.8,-0.8 0.44,0 0.8,0.36 0.8,0.8l-1.6 0zm0 6.28l0 -6.28 1.6 0 0 6.28 -1.6 0zm1.6 0c0,0.44 -0.36,0.8 -0.8,0.8 -0.44,0 -0.8,-0.36 -0.8,-0.8l1.6 0z"/>
    </g>
   </g>
   <g>
    <path class="fil1" d="M21.61 17.82c0,-0.44 0.36,-0.8 0.8,-0.8 0.44,0 0.8,0.36 0.8,0.8l-1.6 0zm0 3.66l0 -3.66 1.6 0 0 3.66 -1.6 0zm1.6 0c0,0.44 -0.36,0.8 -0.8,0.8 -0.44,0 -0.8,-0.36 -0.8,-0.8l1.6 0z"/>
   </g>
   <g>
    <path class="fil1" d="M24.24 18.85c0.44,0 0.8,0.36 0.8,0.8 0,0.44 -0.36,0.8 -0.8,0.8l0 -1.6zm-3.66 0l3.66 0 0 1.6 -3.66 0 0 -1.6zm0 1.6c-0.44,0 -0.8,-0.36 -0.8,-0.8 0,-0.44 0.36,-0.8 0.8,-0.8l0 1.6z"/>
   </g>
  </g>
 </g>
</svg>
