<?xml version="1.0" encoding="UTF-8"?>
<!DOCTYPE svg PUBLIC "-//W3C//DTD SVG 1.1//EN" "http://www.w3.org/Graphics/SVG/1.1/DTD/svg11.dtd">
<!-- Creator: CorelDRAW -->
<svg xmlns="http://www.w3.org/2000/svg" xml:space="preserve" width="19.3265mm" height="19.3253mm" version="1.1" style="shape-rendering:geometricPrecision; text-rendering:geometricPrecision; image-rendering:optimizeQuality; fill-rule:evenodd; clip-rule:evenodd"
viewBox="0 0 70.06 70.06"
 xmlns:xlink="http://www.w3.org/1999/xlink"
 xmlns:xodm="http://www.corel.com/coreldraw/odm/2003">
 <defs>
  <style type="text/css">
   <![CDATA[
    .fil0 {fill:#F8FAFF}
    .fil1 {fill:#3B61B9;fill-rule:nonzero}
   ]]>
  </style>
 </defs>
 <g id="Слой_x0020_1">
  <metadata id="CorelCorpID_0Corel-Layer"/>
  <rect class="fil0" x="-0" y="-0" width="70.06" height="70.06"/>
  <path class="fil1" d="M21.36 23.39l13.29 -4.32c0.26,-0.08 0.53,-0.08 0.77,0l13.37 4.35c0.53,0.17 0.86,0.66 0.86,1.19 0,9.2 -1.52,14.91 -4.04,18.77 -2.57,3.93 -6.1,5.87 -10.08,7.58 -0.32,0.14 -0.68,0.13 -0.98,-0 -3.99,-1.7 -7.51,-3.65 -10.08,-7.58 -2.52,-3.86 -4.05,-9.56 -4.05,-18.77 0,-0.59 0.4,-1.08 0.95,-1.21zm9.31 11.07c-0.42,-0.54 -0.32,-1.33 0.22,-1.75 0.54,-0.42 1.33,-0.32 1.75,0.22l2.24 2.91 5.25 -7.22c0.4,-0.56 1.19,-0.68 1.74,-0.28 0.56,0.4 0.68,1.19 0.28,1.74l-6.23 8.57c-0.07,0.09 -0.15,0.18 -0.25,0.25 -0.54,0.42 -1.33,0.32 -1.75,-0.22l-3.26 -4.23zm4.36 -12.89l-12.11 3.94c0.09,8.13 1.44,13.15 3.63,16.49 2.11,3.23 5.09,4.95 8.48,6.44 3.39,-1.49 6.36,-3.21 8.48,-6.44 2.19,-3.34 3.54,-8.37 3.63,-16.49l-12.11 -3.94z"/>
 </g>
</svg>
