<svg width="32" height="32" viewBox="0 0 32 32" fill="none" xmlns="http://www.w3.org/2000/svg">
<path d="M16.5356 4C17.9339 4 19.0675 5.17959 19.0675 6.6347C19.0675 7.83691 19.113 8.90673 18.1414 9.79113C14.9614 12.6859 13.3714 14.1333 11.4675 14.1333C9.56353 14.1333 7.97353 12.6859 4.79353 9.79113C3.82192 8.90666 3.86752 7.83672 3.86752 6.63442C3.86752 5.17947 5.00097 4 6.39915 4" stroke="#3B61B9" stroke-width="2" stroke-linecap="round" stroke-linejoin="round"/>
<path d="M11.4668 19.2002V23.6332C11.4668 26.7814 14.019 29.3336 17.1672 29.3336C20.3154 29.3336 22.8676 26.7814 22.8676 23.6332V21.7335" stroke="#3B61B9" stroke-width="2" stroke-linecap="round" stroke-linejoin="round"/>
<path d="M17.7994 10.333L16.15 14.4567C15.7115 15.5529 15.4922 16.101 15.1251 16.5513C14.7579 17.0017 14.2652 17.3269 13.2798 17.9772L11.4276 19.1996L9.60771 17.974C8.64426 17.3251 8.16252 17.0006 7.8032 16.5556C7.44387 16.1106 7.22816 15.5714 6.79676 14.4929L5.13281 10.333" stroke="#3B61B9" stroke-width="2" stroke-linecap="round" stroke-linejoin="round"/>
<path d="M26.6664 17.9328C26.6664 20.0315 24.9651 21.7328 22.8664 21.7328C20.7677 21.7328 19.0664 20.0315 19.0664 17.9328C19.0664 15.8341 20.7677 14.1328 22.8664 14.1328C24.9651 14.1328 26.6664 15.8341 26.6664 17.9328Z" stroke="#3B61B9" stroke-width="2"/>
<path d="M22.8772 17.9336L22.8658 17.9336" stroke="#3B61B9" stroke-width="2" stroke-linecap="round" stroke-linejoin="round"/>
</svg>
